<svg width="34" height="20" viewBox="0 0 34 20" fill="none" xmlns="http://www.w3.org/2000/svg">
<circle r="2.40729" transform="matrix(-1 0 0 1 31.2949 2.40729)" fill="#F7731E"/>
<circle r="2.40729" transform="matrix(-1 0 0 1 24.0729 2.40729)" fill="#F7731E"/>
<circle r="2.40729" transform="matrix(-1 0 0 1 16.8511 2.40729)" fill="#F7731E"/>
<circle r="2.40729" transform="matrix(-1 0 0 1 9.62914 2.40729)" fill="#F7731E"/>
<circle r="2.40729" transform="matrix(-1 0 0 1 2.40734 2.40729)" fill="#F7731E"/>
<circle r="2.40729" transform="matrix(-1 0 0 1 31.2949 9.62922)" fill="#F7731E"/>
<circle r="2.40729" transform="matrix(-1 0 0 1 24.0729 9.62922)" fill="#F7731E"/>
<circle r="2.40729" transform="matrix(-1 0 0 1 16.8511 9.62922)" fill="#F7731E"/>
<circle r="2.40729" transform="matrix(-1 0 0 1 9.62914 9.62922)" fill="#F7731E"/>
<circle r="2.40729" transform="matrix(-1 0 0 1 31.2949 16.8511)" fill="#F7731E"/>
<circle r="2.40729" transform="matrix(-1 0 0 1 24.0729 16.8511)" fill="#F7731E"/>
<circle r="2.40729" transform="matrix(-1 0 0 1 16.8511 16.8511)" fill="#F7731E"/>
</svg>
