<svg width="12" height="16" viewBox="0 0 12 16" fill="none" xmlns="http://www.w3.org/2000/svg">
<path d="M10.9255 2.7907C9.83478 1.00465 8.03425 0 6.00866 0C4.00037 0 2.19984 1.00465 1.07451 2.7907C-0.0508169 4.53953 -0.310509 6.77209 0.382003 8.72558C0.572443 9.24651 0.86676 9.78605 1.24764 10.2698L5.62778 15.814C5.73165 15.9256 5.83553 16 5.99134 16C6.14716 16 6.25104 15.9256 6.35491 15.814L10.7524 10.2698C11.1332 9.78605 11.4449 9.26512 11.618 8.72558C12.3105 6.77209 12.0508 4.53953 10.9255 2.7907ZM6.00866 9.37674C4.51976 9.37674 3.29055 8.05581 3.29055 6.45581C3.29055 4.85581 4.51976 3.53488 6.00866 3.53488C7.49756 3.53488 8.72676 4.85581 8.72676 6.45581C8.72676 8.05581 7.51487 9.37674 6.00866 9.37674Z" fill="#F7731E"/>
</svg>
