<svg width="138" height="38" viewBox="0 0 138 38" fill="none" xmlns="http://www.w3.org/2000/svg">
<path d="M54.6402 15.1276C55.1279 15.1276 55.5618 15.0487 55.9419 14.8909C56.3292 14.7259 56.6555 14.4928 56.9209 14.1916C57.1863 13.8904 57.3871 13.5246 57.5234 13.0943C57.6668 12.6568 57.7385 12.1619 57.7385 11.6096V2.32528H61.3748V11.6096C61.3748 12.5707 61.217 13.4529 60.9015 14.2561C60.5931 15.0594 60.1484 15.7515 59.5674 16.3325C58.9865 16.9134 58.28 17.3653 57.4481 17.688C56.6161 18.0108 55.6801 18.1721 54.6402 18.1721C53.593 18.1721 52.6535 18.0108 51.8215 17.688C50.9896 17.3653 50.2831 16.9134 49.7022 16.3325C49.1212 15.7515 48.6765 15.0594 48.3681 14.2561C48.0597 13.4529 47.9055 12.5707 47.9055 11.6096V2.32528H51.5418V11.5989C51.5418 12.1511 51.6099 12.646 51.7462 13.0835C51.8897 13.5138 52.0941 13.8832 52.3594 14.1916C52.6248 14.4928 52.9476 14.7259 53.3277 14.8909C53.715 15.0487 54.1525 15.1276 54.6402 15.1276ZM77.8999 2.32528V18H76.0065C75.7268 18 75.4901 17.957 75.2964 17.8709C75.11 17.7777 74.9235 17.6199 74.737 17.3975L67.3461 8.04865C67.3748 8.32837 67.3927 8.60091 67.3999 8.86628C67.4143 9.12447 67.4214 9.36833 67.4214 9.59784V18H64.2155V2.32528H66.1305C66.2882 2.32528 66.4209 2.33246 66.5285 2.3468C66.6361 2.36115 66.7329 2.38983 66.819 2.43287C66.905 2.46873 66.9875 2.52252 67.0664 2.59424C67.1453 2.66596 67.235 2.76278 67.3354 2.88471L74.7908 12.2981C74.755 11.9969 74.7298 11.7064 74.7155 11.4267C74.7012 11.1398 74.694 10.8709 74.694 10.6199V2.32528H77.8999ZM84.5989 18H80.9411V2.32528H84.5989V18ZM98.8869 5.20849H94.476V18H90.8397V5.20849H86.4288V2.32528H98.8869V5.20849ZM108.244 12.04V18H104.608V12.04L98.9272 2.32528H102.133C102.449 2.32528 102.696 2.40059 102.875 2.55121C103.062 2.69465 103.216 2.88113 103.338 3.11063L105.554 7.67212C105.741 8.03072 105.909 8.36781 106.06 8.68339C106.211 8.99179 106.343 9.29661 106.458 9.59784C106.566 9.28943 106.687 8.98103 106.824 8.67263C106.967 8.35706 107.132 8.02355 107.319 7.67212L109.513 3.11063C109.563 3.0174 109.624 2.92416 109.696 2.83092C109.768 2.73768 109.85 2.6552 109.944 2.58348C110.044 2.50459 110.155 2.44362 110.277 2.40059C110.406 2.35039 110.546 2.32528 110.697 2.32528H113.924L108.244 12.04Z" fill="#F8F8F8"/>
<path fill-rule="evenodd" clip-rule="evenodd" d="M7.08717 35.7288C7.61954 36.0119 8.17996 36.2665 8.76841 36.4925C10.6313 37.2081 12.7351 37.5659 15.0797 37.5659C17.4084 37.5659 19.5041 37.2081 21.367 36.4925C23.2299 35.777 24.8117 34.7752 26.1125 33.4872C27.4133 32.1992 28.409 30.6647 29.0996 28.8837C29.8062 27.1027 30.1595 25.1469 30.1595 23.0161V12.6564L22.0174 20.7985V23.0161C22.0174 24.2405 21.8568 25.3377 21.5356 26.3077C21.2305 27.2618 20.7808 28.0727 20.1866 28.7406C19.5924 29.4084 18.8617 29.9252 17.9945 30.291C17.1434 30.6408 16.1718 30.8157 15.0797 30.8157C14.1032 30.8157 13.2166 30.6759 12.4198 30.3961L7.08717 35.7288ZM22.0174 15.3264L30.1595 7.18432V2.43164H22.0174V15.3264ZM9.38811 27.9557L3.93973 33.4041C2.67956 32.1333 1.71159 30.6265 1.03583 28.8837C0.345276 27.1027 0 25.1469 0 23.0161V2.43164H8.1421V22.9922C8.1421 24.2166 8.29466 25.3138 8.59979 26.2838C8.80619 26.8969 9.06896 27.4542 9.38811 27.9557Z" fill="#F8F8F8"/>
<path fill-rule="evenodd" clip-rule="evenodd" d="M21.901 20.915L21.901 24.9379L30.1595 16.6984L30.1595 12.6565L21.901 20.915ZM33.9574 8.85858H40.1772V2.63874L33.9574 8.85858ZM34.9478 2.396H11.8832V8.85858H21.901L21.901 15.4429L34.9478 2.396Z" fill="#F7731E"/>
<path d="M59.0403 24.5993H54.6294V37.3908H50.9931V24.5993H46.5823V21.7161H59.0403V24.5993Z" fill="#F7731E"/>
<path d="M75.915 29.5481C75.915 30.6813 75.7178 31.7356 75.3233 32.711C74.936 33.6864 74.3874 34.5363 73.6773 35.2607C72.9673 35.9779 72.1102 36.5409 71.1061 36.9497C70.1092 37.3585 69.0011 37.5629 67.7818 37.5629C66.5626 37.5629 65.4509 37.3585 64.4468 36.9497C63.4427 36.5409 62.582 35.9779 61.8648 35.2607C61.1548 34.5363 60.6025 33.6864 60.2081 32.711C59.8208 31.7356 59.6271 30.6813 59.6271 29.5481C59.6271 28.4149 59.8208 27.3606 60.2081 26.3851C60.6025 25.4097 61.1548 24.5634 61.8648 23.8462C62.582 23.129 63.4427 22.566 64.4468 22.1572C65.4509 21.7484 66.5626 21.5439 67.7818 21.5439C69.0011 21.5439 70.1092 21.7519 71.1061 22.1679C72.1102 22.5767 72.9673 23.1397 73.6773 23.857C74.3874 24.5742 74.936 25.4205 75.3233 26.3959C75.7178 27.3713 75.915 28.422 75.915 29.5481ZM72.1927 29.5481C72.1927 28.7735 72.0923 28.0778 71.8915 27.461C71.6907 26.837 71.4002 26.3098 71.0201 25.8795C70.6471 25.4492 70.1881 25.1193 69.643 24.8897C69.0979 24.6602 68.4775 24.5455 67.7818 24.5455C67.079 24.5455 66.4514 24.6602 65.8992 24.8897C65.3541 25.1193 64.8915 25.4492 64.5113 25.8795C64.1384 26.3098 63.8515 26.837 63.6507 27.461C63.4499 28.0778 63.3495 28.7735 63.3495 29.5481C63.3495 30.3298 63.4499 31.0327 63.6507 31.6567C63.8515 32.2735 64.1384 32.797 64.5113 33.2274C64.8915 33.6577 65.3541 33.9876 65.8992 34.2171C66.4514 34.4395 67.079 34.5506 67.7818 34.5506C68.4775 34.5506 69.0979 34.4395 69.643 34.2171C70.1881 33.9876 70.6471 33.6577 71.0201 33.2274C71.4002 32.797 71.6907 32.2735 71.8915 31.6567C72.0923 31.0327 72.1927 30.3298 72.1927 29.5481Z" fill="#F7731E"/>
<path d="M99.0107 21.7161L94.1695 37.3908H90.8775L87.9298 27.6761C87.8724 27.5255 87.8186 27.3606 87.7684 27.1812C87.7182 26.9948 87.668 26.8011 87.6178 26.6003C87.5676 26.8011 87.5174 26.9948 87.4672 27.1812C87.417 27.3606 87.3632 27.5255 87.3058 27.6761L84.315 37.3908H81.023L76.1818 21.7161H79.2371C79.5527 21.7161 79.8145 21.7878 80.0225 21.9312C80.2377 22.0747 80.3775 22.2647 80.4421 22.5014L82.5937 30.6777C82.6583 30.9359 82.7228 31.2192 82.7874 31.5276C82.8519 31.8288 82.9165 32.1444 82.981 32.4743C83.1101 31.8001 83.2679 31.2012 83.4544 30.6777L85.9933 22.5014C86.0579 22.3006 86.1941 22.1213 86.4021 21.9635C86.6173 21.7986 86.8755 21.7161 87.1767 21.7161H88.2525C88.5681 21.7161 88.8227 21.7914 89.0164 21.942C89.21 22.0854 89.357 22.2719 89.4574 22.5014L91.9749 30.6777C92.1613 31.1797 92.3191 31.7499 92.4482 32.3882C92.5056 32.0655 92.563 31.7642 92.6204 31.4845C92.6849 31.1976 92.7495 30.9287 92.814 30.6777L94.9657 22.5014C95.023 22.2934 95.1593 22.1105 95.3745 21.9528C95.5896 21.795 95.8478 21.7161 96.1491 21.7161H99.0107Z" fill="#F7731E"/>
<path d="M104.238 24.5132V28.171H109.165V30.8606H104.238V34.5937H110.671V37.3908H100.58V21.7161H110.671V24.5132H104.238Z" fill="#F7731E"/>
<path d="M118.013 29.0855C118.508 29.0855 118.928 29.0245 119.272 28.9026C119.624 28.7735 119.91 28.5977 120.133 28.3754C120.355 28.1531 120.517 27.8949 120.617 27.6008C120.717 27.2996 120.768 26.9768 120.768 26.6326C120.768 25.9441 120.542 25.4061 120.09 25.0188C119.645 24.6316 118.953 24.4379 118.013 24.4379H116.55V29.0855H118.013ZM125.738 37.3908H122.446C121.836 37.3908 121.399 37.1613 121.133 36.7023L118.53 32.1515C118.408 31.9579 118.272 31.818 118.121 31.732C117.97 31.6387 117.755 31.5921 117.476 31.5921H116.55V37.3908H112.914V21.7161H118.013C119.147 21.7161 120.111 21.8344 120.907 22.0711C121.711 22.3006 122.363 22.6234 122.865 23.0393C123.375 23.4553 123.744 23.9466 123.973 24.5132C124.203 25.0798 124.318 25.6966 124.318 26.3636C124.318 26.8728 124.25 27.3534 124.113 27.8052C123.977 28.2571 123.776 28.6766 123.511 29.0639C123.246 29.4441 122.916 29.7847 122.521 30.086C122.134 30.3872 121.686 30.6346 121.176 30.8283C121.413 30.9502 121.635 31.1044 121.843 31.2909C122.051 31.4702 122.238 31.6854 122.403 31.9364L125.738 37.3908Z" fill="#F7731E"/>
<path d="M135.716 24.9005C135.608 25.0726 135.493 25.2017 135.371 25.2878C135.257 25.3739 135.106 25.4169 134.919 25.4169C134.755 25.4169 134.575 25.3667 134.382 25.2663C134.195 25.1587 133.98 25.0404 133.736 24.9113C133.499 24.7822 133.227 24.6674 132.918 24.567C132.61 24.4594 132.259 24.4056 131.864 24.4056C131.183 24.4056 130.674 24.5527 130.336 24.8467C130.007 25.1336 129.842 25.5245 129.842 26.0194C129.842 26.3349 129.942 26.5967 130.143 26.8047C130.344 27.0127 130.605 27.192 130.928 27.3426C131.258 27.4932 131.631 27.6331 132.047 27.7622C132.47 27.8841 132.901 28.024 133.338 28.1818C133.776 28.3324 134.202 28.5117 134.618 28.7197C135.041 28.9277 135.414 29.193 135.737 29.5158C136.067 29.8385 136.332 30.233 136.533 30.6992C136.734 31.1582 136.834 31.714 136.834 32.3667C136.834 33.0911 136.709 33.7689 136.458 34.4C136.207 35.0312 135.841 35.5834 135.361 36.0568C134.887 36.523 134.299 36.8923 133.596 37.1649C132.901 37.4302 132.108 37.5629 131.219 37.5629C130.731 37.5629 130.232 37.5127 129.723 37.4123C129.221 37.3119 128.733 37.172 128.26 36.9927C127.787 36.8063 127.342 36.5875 126.926 36.3365C126.51 36.0855 126.148 35.8057 125.84 35.4973L126.915 33.7975C127.001 33.6756 127.113 33.5752 127.249 33.4963C127.392 33.4103 127.547 33.3672 127.711 33.3672C127.927 33.3672 128.142 33.4354 128.357 33.5716C128.579 33.7079 128.827 33.8585 129.099 34.0235C129.379 34.1884 129.698 34.339 130.057 34.4753C130.415 34.6116 130.839 34.6797 131.326 34.6797C131.986 34.6797 132.499 34.5363 132.865 34.2494C133.23 33.9553 133.413 33.4927 133.413 32.8616C133.413 32.4958 133.313 32.1982 133.112 31.9687C132.911 31.7391 132.646 31.5491 132.316 31.3985C131.993 31.2479 131.624 31.1152 131.208 31.0004C130.792 30.8857 130.365 30.7601 129.928 30.6239C129.49 30.4804 129.063 30.3083 128.647 30.1075C128.231 29.8995 127.858 29.6305 127.529 29.3006C127.206 28.9635 126.944 28.5475 126.743 28.0527C126.542 27.5506 126.442 26.9338 126.442 26.2023C126.442 25.6141 126.56 25.0404 126.797 24.4809C127.034 23.9215 127.382 23.423 127.841 22.9855C128.3 22.548 128.863 22.2002 129.53 21.942C130.197 21.6766 130.96 21.5439 131.821 21.5439C132.302 21.5439 132.768 21.5834 133.22 21.6623C133.679 21.734 134.113 21.8452 134.521 21.9958C134.93 22.1392 135.31 22.315 135.662 22.5229C136.02 22.7238 136.34 22.9533 136.619 23.2115L135.716 24.9005Z" fill="#F7731E"/>
</svg>
