<svg width="0" height="0" class="hidden">
  <symbol xmlns="http://www.w3.org/2000/svg" viewBox="0 0 13 13" id="phone">
    <g clip-path="url(#clip0_8_157)">
      <path d="M12.6604 9.53549L10.8427 7.72229C10.1935 7.07472 9.08989 7.33374 8.83022 8.17559C8.63546 8.7584 7.98627 9.08219 7.402 8.95267C6.10363 8.62889 4.35082 6.9452 4.02623 5.5853C3.83147 5.00249 4.22098 4.35492 4.80525 4.16065C5.6492 3.90162 5.90887 2.80075 5.25968 2.15317L3.44196 0.339975C2.9226 -0.113325 2.14358 -0.113325 1.68915 0.339975L0.455689 1.57036C-0.777768 2.8655 0.585527 6.29763 3.63671 9.34122C6.6879 12.3848 10.1286 13.8095 11.427 12.5143L12.6604 11.2839C13.1149 10.7659 13.1149 9.98879 12.6604 9.53549Z" fill="currentColor"></path>
    </g>
    <defs>
      <clipPath id="clip0_8_157">
        <rect width="13" height="13" fill="white"></rect>
      </clipPath>
    </defs>
  </symbol>
  <symbol xmlns="http://www.w3.org/2000/svg" viewBox="0 0 50 50" id="slide-arrow">
    <circle cx="25" cy="25" r="24.5" transform="rotate(-90 25 25)" stroke="currentColor"></circle>
    <path d="M17 28.3335L24.9167 20.8335L32.8333 28.3335" stroke="currentColor" stroke-width="2" stroke-linecap="round"></path>
  </symbol>
</svg>