<svg width="91" height="81" viewBox="0 0 91 81" fill="none" xmlns="http://www.w3.org/2000/svg">
<path d="M34.7089 2.19629C37.6373 -0.732099 42.3851 -0.732098 45.3135 2.1963L77.8261 34.7089C80.7545 37.6373 80.7545 42.3851 77.8261 45.3135L45.3135 77.8261C42.3851 80.7545 37.6373 80.7545 34.7089 77.8261L2.19629 45.3135C-0.732099 42.3851 -0.732098 37.6373 2.1963 34.7089L34.7089 2.19629Z" fill="white"/>
<path d="M70.6206 36.452H71.4262V45.3127C71.4262 47.5335 73.2329 49.3403 75.4537 49.3403H83.5089C85.7297 49.3403 87.5365 47.5335 87.5365 45.3127V36.452H88.342C89.6743 36.452 90.7585 35.3678 90.7585 34.0355C90.7585 32.7032 89.6743 31.619 88.342 31.619H87.5365V28.2591C87.5365 26.5748 86.8808 24.9912 85.6894 23.7998C84.4981 22.6084 82.9152 21.9528 81.2301 21.9528H77.7317C76.0474 21.9528 74.4638 22.6084 73.2724 23.7998C72.081 24.9912 71.4262 26.574 71.4262 28.2591V31.619H70.6206C69.2883 31.619 68.2041 32.7032 68.2041 34.0355C68.2041 35.3678 69.2883 36.452 70.6206 36.452ZM73.0896 27.5914H74.6482C76.4252 27.5914 77.8703 26.1463 77.8703 24.3693V23.5638H81.0924V24.3693C81.0924 26.1463 82.5375 27.5914 84.3144 27.5914H85.8731C85.9045 27.8113 85.9255 28.0328 85.9255 28.2591V33.1406C84.4489 32.1506 82.7139 31.619 80.8966 31.619H78.0652C76.248 31.619 74.5129 32.1506 73.0364 33.1406V28.2591C73.0372 28.0328 73.0581 27.8113 73.0896 27.5914ZM73.0372 35.1962C74.4138 33.9308 76.1843 33.23 78.066 33.23H80.8974C82.7791 33.23 84.5496 33.9308 85.9263 35.1962V41.7346C84.5488 43.0009 82.7783 43.7017 80.8966 43.7017H78.0652C76.1835 43.7017 74.413 43.0009 73.0364 41.7354V35.1962H73.0372ZM83.5089 47.7293H75.4537C74.1214 47.7293 73.0372 46.645 73.0372 45.3127V43.7911C74.5137 44.7803 76.2488 45.3127 78.066 45.3127H80.8974C82.7147 45.3127 84.4497 44.7803 85.9263 43.7911V45.3127C85.9255 46.645 84.8412 47.7293 83.5089 47.7293V47.7293ZM88.342 33.23C88.7858 33.23 89.1475 33.5917 89.1475 34.0355C89.1475 34.4793 88.7858 34.841 88.342 34.841H87.5365V33.23H88.342ZM85.3342 25.9803H84.3144C83.4259 25.9803 82.7034 25.2578 82.7034 24.3693V23.803C83.3913 24.0294 84.0228 24.412 84.5504 24.9388C84.8638 25.2522 85.124 25.6034 85.3342 25.9803ZM76.2593 23.803V24.3693C76.2593 25.2578 75.5367 25.9803 74.6482 25.9803H73.6284C73.8387 25.6034 74.0989 25.2522 74.4122 24.9388C74.9398 24.412 75.5714 24.0294 76.2593 23.803ZM70.6206 33.23H71.4262V34.841H70.6206C70.1768 34.841 69.8151 34.4793 69.8151 34.0355C69.8151 33.5917 70.1768 33.23 70.6206 33.23Z" fill="#F7731E"/>
<path d="M43.2331 36.452H44.0386V45.3127C44.0386 47.5335 45.8454 49.3403 48.0662 49.3403H56.1213C58.3421 49.3403 60.1489 47.5335 60.1489 45.3127V36.452H60.9544C62.2868 36.452 63.371 35.3678 63.371 34.0355C63.371 32.7032 62.2868 31.619 60.9544 31.619H60.1489V28.2591C60.1489 26.5748 59.4932 24.9912 58.3019 23.7998C57.1105 22.6084 55.5277 21.9528 53.8425 21.9528H50.3442C48.6598 21.9528 47.0762 22.6084 45.8848 23.7998C44.6935 24.9912 44.0386 26.574 44.0386 28.2591V31.619H43.2331C41.9008 31.619 40.8165 32.7032 40.8165 34.0355C40.8165 35.3678 41.9008 36.452 43.2331 36.452ZM45.702 27.5914H47.2607C49.0376 27.5914 50.4827 26.1463 50.4827 24.3693V23.5638H53.7048V24.3693C53.7048 26.1463 55.1499 27.5914 56.9268 27.5914H58.4855C58.5169 27.8113 58.5379 28.0328 58.5379 28.2591V33.1406C57.0614 32.1506 55.3263 31.619 53.509 31.619H50.6777C48.8604 31.619 47.1253 32.1506 45.6488 33.1406V28.2591C45.6496 28.0328 45.6706 27.8113 45.702 27.5914V27.5914ZM45.6496 35.1962C47.0263 33.9308 48.7968 33.23 50.6785 33.23H53.5098C55.3915 33.23 57.1621 33.9308 58.5387 35.1962V41.7346C57.1613 43.0009 55.3907 43.7017 53.509 43.7017H50.6777C48.7968 43.7017 47.0263 43.0009 45.6496 41.7354V35.1962ZM56.1213 47.7293H48.0662C46.7338 47.7293 45.6496 46.645 45.6496 45.3127V43.7911C47.1261 44.7803 48.8612 45.3127 50.6785 45.3127H53.5098C55.3271 45.3127 57.0622 44.7803 58.5387 43.7911V45.3127C58.5379 46.645 57.4537 47.7293 56.1213 47.7293V47.7293ZM60.9544 33.23C61.3983 33.23 61.7599 33.5917 61.7599 34.0355C61.7599 34.4793 61.3983 34.841 60.9544 34.841H60.1489V33.23H60.9544ZM57.9466 25.9803H56.9268C56.0384 25.9803 55.3158 25.2578 55.3158 24.3693V23.803C56.0037 24.0294 56.6352 24.412 57.1629 24.9388C57.4762 25.2522 57.7364 25.6034 57.9466 25.9803ZM48.8717 23.803V24.3693C48.8717 25.2578 48.1491 25.9803 47.2607 25.9803H46.2409C46.4511 25.6034 46.7113 25.2522 47.0246 24.9388C47.5523 24.412 48.1838 24.0294 48.8717 23.803V23.803ZM43.2331 33.23H44.0386V34.841H43.2331C42.7892 34.841 42.4276 34.4793 42.4276 34.0355C42.4276 33.5917 42.7892 33.23 43.2331 33.23Z" fill="#F7731E"/>
<path d="M43.2331 20.3418H60.9545C61.3991 20.3418 61.76 19.9809 61.76 19.5362V16.3142C61.76 15.8695 61.3991 15.5087 60.9545 15.5087H43.2331C42.7885 15.5087 42.4276 15.8695 42.4276 16.3142V19.5362C42.4276 19.9809 42.7885 20.3418 43.2331 20.3418ZM44.0386 17.1197H60.149V18.7307H44.0386V17.1197Z" fill="#F7731E"/>
<path d="M70.6206 20.3418H88.3419C88.7866 20.3418 89.1474 19.9809 89.1474 19.5362V16.3142C89.1474 15.8695 88.7866 15.5087 88.3419 15.5087H70.6206C70.1759 15.5087 69.8151 15.8695 69.8151 16.3142V19.5362C69.8151 19.9809 70.1759 20.3418 70.6206 20.3418ZM71.4261 17.1197H87.5364V18.7307H71.4261V17.1197Z" fill="#F7731E"/>
<path d="M40.8165 63.8396H90.7585V65.4506H40.8165V63.8396Z" fill="#F7731E"/>
<path d="M44.8441 57.3955H48.0662V59.0065H44.8441V57.3955Z" fill="#F7731E"/>
<path d="M51.2882 57.3955H54.5103V59.0065H51.2882V57.3955Z" fill="#F7731E"/>
<path d="M57.7324 57.3955H60.9545V59.0065H57.7324V57.3955Z" fill="#F7731E"/>
<path d="M64.1765 57.3955H67.3986V59.0065H64.1765V57.3955Z" fill="#F7731E"/>
<path d="M70.6206 57.3955H73.8427V59.0065H70.6206V57.3955Z" fill="#F7731E"/>
<path d="M77.0647 57.3955H80.2868V59.0065H77.0647V57.3955Z" fill="#F7731E"/>
<path d="M83.5089 57.3955H86.731V59.0065H83.5089V57.3955Z" fill="#F7731E"/>
<path d="M66.593 15.5087H64.982V50.9514H40.8165V52.5624H90.7585V50.9514H66.593V15.5087Z" fill="#F7731E"/>
</svg>
