<svg width="95" height="81" viewBox="0 0 95 81" fill="none" xmlns="http://www.w3.org/2000/svg">
<path d="M49.3003 2.19629C52.2287 -0.732099 56.9766 -0.732098 59.905 2.1963L92.4176 34.7089C95.346 37.6373 95.346 42.3851 92.4176 45.3135L59.905 77.8261C56.9766 80.7545 52.2287 80.7545 49.3003 77.8261L16.7877 45.3135C13.8593 42.3851 13.8593 37.6373 16.7877 34.7089L49.3003 2.19629Z" fill="white"/>
<path d="M43.0036 17.2734V18.9211H45.6947V28.5127C44.6127 28.1638 43.8274 27.1477 43.8274 25.951H42.1797C42.1797 27.4349 40.9725 28.6422 39.4886 28.6422V30.2898C40.9725 30.2898 42.1797 31.4971 42.1797 32.981H43.8274C43.8274 31.7844 44.6127 30.7682 45.6947 30.4193V66.4831H1.64765V18.9211H35.9736V17.2734H0V68.1308H47.3424V17.2734H43.0036ZM43.0036 30.4419C42.7321 30.0671 42.4025 29.7374 42.0277 29.466C42.4025 29.1946 42.7321 28.865 43.0036 28.4902C43.275 28.865 43.6046 29.1946 43.9794 29.466C43.6046 29.7374 43.275 30.0671 43.0036 30.4419Z" fill="#F7731E"/>
<path d="M3.51489 20.7885V40.011H5.16254V22.4361H21.0898V62.9682H5.16254V47.041H3.51489V64.6158H22.7374V20.7885H3.51489Z" fill="#F7731E"/>
<path d="M24.6049 20.7885V60.277H26.2525V22.4361H43.0036V20.7885H24.6049Z" fill="#F7731E"/>
<path d="M42.1797 36.496V62.9682H25.4286V64.6159H43.8273V36.496H42.1797Z" fill="#F7731E"/>
<path d="M10.786 24.5447L7.27063 28.06L8.43568 29.225L11.951 25.7097L10.786 24.5447Z" fill="#F7731E"/>
<path d="M14.301 24.5451L7.27112 31.575L8.43617 32.74L15.466 25.7102L14.301 24.5451Z" fill="#F7731E"/>
<path d="M31.8757 24.5445L28.3604 28.0598L29.5254 29.2249L33.0407 25.7095L31.8757 24.5445Z" fill="#F7731E"/>
<path d="M35.3904 24.5451L28.3606 31.575L29.5256 32.74L36.5555 25.7102L35.3904 24.5451Z" fill="#F7731E"/>
<path d="M8.67755 40.011H7.0299C7.0299 41.4949 5.82262 42.7021 4.33875 42.7021V44.3498C5.82262 44.3498 7.0299 45.5571 7.0299 47.0409H8.67755C8.67755 45.5571 9.88483 44.3498 11.3687 44.3498V42.7021C9.88483 42.7021 8.67755 41.4949 8.67755 40.011ZM7.85372 44.5018C7.5823 44.127 7.25266 43.7974 6.87788 43.526C7.25266 43.2545 7.5823 42.9249 7.85372 42.5501C8.12515 42.9249 8.45479 43.2545 8.82957 43.526C8.45479 43.7974 8.12515 44.127 7.85372 44.5018Z" fill="#F7731E"/>
<path d="M40.3124 11.8911H38.6648C38.6648 13.375 37.4575 14.5823 35.9736 14.5823V16.2299C37.4575 16.2299 38.6648 17.4372 38.6648 18.9211H40.3124C40.3124 17.4372 41.5197 16.2299 43.0036 16.2299V14.5823C41.5197 14.5823 40.3124 13.375 40.3124 11.8911ZM39.4886 16.3819C39.2172 16.0072 38.8875 15.6775 38.5128 15.4061C38.8875 15.1347 39.2172 14.805 39.4886 14.4302C39.76 14.805 40.0897 15.1347 40.4645 15.4061C40.0897 15.6775 39.76 16.0072 39.4886 16.3819Z" fill="#F7731E"/>
<path d="M39.4886 41.8784H37.7311V43.526H39.4886V41.8784Z" fill="#F7731E"/>
<path d="M35.0949 41.8784H33.3374V43.526H35.0949V41.8784Z" fill="#F7731E"/>
<path d="M30.7011 41.8784H28.9436V43.526H30.7011V41.8784Z" fill="#F7731E"/>
</svg>
