<svg width="100" height="100" viewBox="0 0 100 100" fill="none" xmlns="http://www.w3.org/2000/svg">
<path d="M40.7089 12.1963C43.6373 9.2679 48.3851 9.2679 51.3135 12.1963L83.8261 44.7089C86.7545 47.6373 86.7545 52.3851 83.8261 55.3135L51.3135 87.8261C48.3851 90.7545 43.6373 90.7545 40.7089 87.8261L8.19629 55.3135C5.2679 52.3851 5.2679 47.6373 8.1963 44.7089L40.7089 12.1963Z" fill="white"/>
<path d="M93.9395 63.8211C94.3881 63.8211 94.7518 63.4573 94.7518 63.0088C94.7518 62.5601 94.388 62.1965 93.9395 62.1965H93.1272C93.1272 61.7478 92.7635 61.3841 92.3149 61.3841C91.8662 61.3841 91.5025 61.7478 91.5025 62.1965H78.5051C78.5051 61.7478 78.1414 61.3841 77.6928 61.3841C77.2441 61.3841 76.8805 61.7478 76.8805 62.1965H76.0682C75.6195 62.1965 75.2559 62.5602 75.2559 63.0088C75.2559 63.4574 75.6195 63.8211 76.0682 63.8211H76.8805V66.2581H76.0682C75.6195 66.2581 75.2559 66.6217 75.2559 67.0704C75.2559 67.519 75.6195 67.8827 76.0682 67.8827H76.8805V68.695H76.0682C75.6195 68.695 75.2559 69.0587 75.2559 69.5073C75.2559 69.9559 75.6195 70.3196 76.0682 70.3196H76.8805V72.7566H63.0706V66.0358C64.2723 66.7129 65.6281 67.0692 67.0074 67.0703C71.6205 67.0038 75.3099 63.2168 75.2557 58.6034C75.2807 55.396 73.4896 52.4501 70.6303 50.9965C71.5716 49.715 72.076 48.1647 72.069 46.5747C72.0973 43.0655 69.6356 40.0279 66.1966 39.3286C67.0668 37.4097 66.9172 35.1823 65.7982 33.397C64.6793 31.6116 62.7399 30.5059 60.6335 30.4525C60.6095 30.4525 60.5862 30.4559 60.5622 30.4562C60.1298 27.6606 57.7073 25.6086 54.8787 25.6415C52.05 25.6744 49.6761 27.7825 49.3089 30.5874C47.2519 30.9817 45.8318 32.8755 46.0298 34.9607C46.2277 37.0459 47.9787 38.6386 50.0733 38.6387H54.8084C54.8817 38.8723 54.9686 39.1014 55.0687 39.3248C51.6298 40.0265 49.1694 43.0652 49.1983 46.5747C49.1913 48.1648 49.6956 49.7151 50.6368 50.9966C47.7776 52.4503 45.9865 55.3961 46.0116 58.6035C45.9573 63.2168 49.6467 67.0039 54.2599 67.0704C55.6392 67.0693 56.995 66.7131 58.1966 66.0359V72.7567H46.824C46.3753 72.7567 46.0117 73.1203 46.0117 73.569C46.0117 74.0177 46.3753 74.3813 46.824 74.3813H93.9395C94.3881 74.3813 94.7518 74.0177 94.7518 73.569C94.7518 73.1203 94.388 72.7567 93.9395 72.7567H93.1272V70.3197H93.9395C94.3881 70.3197 94.7518 69.956 94.7518 69.5074C94.7518 69.0587 94.388 68.6951 93.9395 68.6951H93.1272V67.8828H93.9395C94.3881 67.8828 94.7518 67.5191 94.7518 67.0705C94.7518 66.6218 94.388 66.2582 93.9395 66.2582H93.1272V63.8212H93.9395V63.8211ZM54.5098 36.7331C54.5098 36.8275 54.5205 36.9202 54.5246 37.014H50.0733C48.7274 37.014 47.6363 35.9229 47.6363 34.577C47.6363 33.231 48.7274 32.1399 50.0733 32.1399C50.2887 32.14 50.4954 32.0545 50.6478 31.902C50.8001 31.7497 50.8857 31.5431 50.8857 31.3275C50.8815 29.2075 52.5115 27.4424 54.6252 27.2781C56.7388 27.1137 58.6221 28.6057 58.9457 30.7009C56.2962 31.5101 54.4926 33.9629 54.5098 36.7331ZM61.446 72.7568H59.8213V64.8417C60.1124 64.5706 60.3839 64.2791 60.6336 63.9695C60.8833 64.2791 61.1548 64.5706 61.4459 64.8417V72.7568H61.446ZM61.5447 62.4342L66.8944 57.0843C67.2067 56.7663 67.2043 56.2561 66.8892 55.9409C66.5741 55.6257 66.0638 55.6234 65.7457 55.9357L61.446 60.2353V51.9723L65.2697 48.1487C65.5834 47.8309 65.5819 47.3195 65.266 47.0036C64.9503 46.6878 64.4388 46.6862 64.1209 47L61.4459 49.675V45.9497C61.4459 45.501 61.0822 45.1374 60.6336 45.1374C60.185 45.1374 59.8213 45.5011 59.8213 45.9497V49.675L57.1463 47C56.8286 46.6862 56.3171 46.6878 56.0012 47.0036C55.6854 47.3194 55.6838 47.8309 55.9976 48.1487L59.8212 51.9724V60.2354L55.5215 55.9357C55.2038 55.622 54.6923 55.6236 54.3764 55.9393C54.0607 56.2551 54.059 56.7667 54.3728 57.0844L59.7225 62.4342C58.5332 64.3028 56.4746 65.4376 54.2597 65.4458C50.5435 65.3804 47.5809 62.32 47.6361 58.6036C47.6016 55.6646 49.4593 53.0361 52.2412 52.0874C52.5101 51.9988 52.7134 51.7765 52.7778 51.5007C52.8422 51.225 52.7581 50.9357 52.5562 50.7372C51.4395 49.641 50.8143 48.1395 50.8229 46.5747C50.7697 43.4751 53.2211 40.9099 56.32 40.8225C56.6554 40.8522 56.9759 40.6785 57.1343 40.3814C57.2728 40.1084 57.2457 39.7806 57.0642 39.5342C56.4621 38.7242 56.1361 37.7423 56.1344 36.733C56.0948 34.2064 58.107 32.124 60.6335 32.0772C63.1601 32.124 65.1724 34.2064 65.1327 36.733C65.131 37.7423 64.805 38.7242 64.2029 39.5342C64.0251 39.7827 64.0028 40.1103 64.1454 40.3807C64.289 40.6549 64.5732 40.8265 64.8828 40.8257C68.0042 40.8819 70.4915 43.4532 70.4442 46.5747C70.4528 48.1395 69.8274 49.641 68.7109 50.7372C68.5089 50.9357 68.4249 51.225 68.4893 51.5007C68.5536 51.7765 68.757 51.9988 69.0259 52.0874C72.1458 53.1784 74.0478 56.3353 73.5539 59.6033C73.06 62.8714 70.3104 65.3254 67.0074 65.4458C64.7924 65.4376 62.7339 64.3028 61.5447 62.4342ZM91.5025 72.7568H78.5051V70.3198H91.5025V72.7568V72.7568ZM91.5025 68.6951H78.5051V67.8828H91.5025V68.6951V68.6951ZM91.5025 66.2581H78.5051V63.8211H91.5025V66.2581V66.2581Z" fill="#F7731E"/>
<path d="M80.9422 45.9493H90.6902C92.7847 45.9492 94.5357 44.3564 94.7338 42.2713C94.9317 40.1861 93.5116 38.2923 91.4545 37.8981C91.0828 35.0679 88.6706 32.9519 85.8162 32.9519C82.9618 32.9519 80.5496 35.0679 80.1778 37.8981C78.1208 38.2923 76.7007 40.1861 76.8986 42.2713C77.0965 44.3564 78.8476 45.9492 80.9422 45.9493ZM80.9422 39.4505C81.1576 39.4506 81.3643 39.365 81.5167 39.2126C81.669 39.0603 81.7546 38.8537 81.7546 38.6381C81.7546 36.3949 83.5731 34.5764 85.8163 34.5764C88.0595 34.5764 89.878 36.3948 89.878 38.6381C89.8779 38.8536 89.9635 39.0602 90.1159 39.2126C90.2682 39.365 90.4749 39.4505 90.6904 39.4505C92.0363 39.4505 93.1274 40.5417 93.1274 41.8875C93.1274 43.2334 92.0364 44.3245 90.6904 44.3245H80.9424C79.5965 44.3245 78.5054 43.2335 78.5054 41.8875C78.5054 40.5416 79.5962 39.4505 80.9422 39.4505Z" fill="#F7731E"/>
</svg>
