<svg width="91" height="81" viewBox="0 0 91 81" fill="none" xmlns="http://www.w3.org/2000/svg">
<path d="M45.3131 2.19629C48.2415 -0.732099 52.9894 -0.732098 55.9178 2.1963L88.4304 34.7089C91.3588 37.6373 91.3588 42.3851 88.4304 45.3135L55.9178 77.8261C52.9894 80.7545 48.2415 80.7545 45.3131 77.8261L12.8005 45.3135C9.87215 42.3851 9.87215 37.6373 12.8005 34.7089L45.3131 2.19629Z" fill="white"/>
<path d="M11.0734 54.3846C10.2822 53.5934 9.23038 53.1577 8.1117 53.1577C7.45082 53.1577 6.81378 53.311 6.23951 53.5985C0.596339 45.6033 0.576764 34.6473 6.28725 26.6328C6.604 26.1881 6.50039 25.5708 6.05573 25.254C5.61106 24.9372 4.99378 25.0408 4.67694 25.4854C1.527 29.9063 -0.0889519 35.1269 0.00377782 40.5826C0.0920589 45.7746 1.72224 50.6997 4.72568 54.8808C3.53225 56.5179 3.67352 58.8314 5.14998 60.308C5.96656 61.1245 7.03908 61.5328 8.1117 61.5328C9.18432 61.5328 10.2568 61.1245 11.0734 60.308C12.7065 58.6749 12.7065 56.0177 11.0734 54.3846ZM9.67525 58.9098C8.8129 59.772 7.41019 59.772 6.54804 58.9098C5.6858 58.0476 5.6858 56.6447 6.54804 55.7825C6.96572 55.3649 7.52101 55.1348 8.1116 55.1348C8.70218 55.1348 9.25757 55.3649 9.67515 55.7825C10.5375 56.6448 10.5375 58.0477 9.67525 58.9098Z" fill="#F7731E"/>
<path d="M40.3306 59.3028C40.0112 58.8603 39.3933 58.7607 38.9505 59.0805C36.1244 61.1226 32.9473 62.4755 29.5076 63.1016C28.7106 63.2467 27.8978 63.0331 27.2777 62.5156C26.662 62.002 26.309 61.2473 26.309 60.4452V53.1991H26.3953C27.5399 53.1991 28.4713 52.2678 28.4713 51.123V49.454C31.8199 48.1757 34.2051 44.9306 34.2051 41.1384V36.4579C35.7983 36.0227 36.9732 34.5635 36.9732 32.8342C36.9732 30.9305 35.5493 29.354 33.7108 29.1111V22.9483C33.7108 21.313 32.3804 19.9825 30.7451 19.9825C29.1097 19.9825 27.7793 21.313 27.7793 22.9483V29.0776H22.8363V22.9483C22.8363 21.313 21.5059 19.9825 19.8706 19.9825C18.2352 19.9825 16.9048 21.313 16.9048 22.9483V29.1111C15.0663 29.354 13.6425 30.9304 13.6425 32.8342C13.6425 34.5635 14.8173 36.0227 16.4105 36.4579V41.1384C16.4105 44.9306 18.7957 48.1757 22.1443 49.454V51.1231C22.1443 52.2679 23.0757 53.1992 24.2204 53.1992H24.3318V60.4453C24.3318 61.8355 24.9438 63.1434 26.0109 64.0338C26.8626 64.7444 27.9239 65.1235 29.0141 65.1235C29.2958 65.1235 29.5793 65.0982 29.8617 65.0468C33.5938 64.3675 37.0413 62.8993 40.1083 60.6831C40.5509 60.3633 40.6503 59.7453 40.3306 59.3028ZM29.7566 22.9483C29.7566 22.4032 30.2 21.9597 30.7452 21.9597C31.2903 21.9597 31.7337 22.4032 31.7337 22.9483V29.0776H29.7566V22.9483ZM18.8821 22.9483C18.8821 22.4032 19.3256 21.9597 19.8707 21.9597C20.4158 21.9597 20.8593 22.4032 20.8593 22.9483V29.0776H18.8821V22.9483ZM15.6197 32.8342C15.6197 31.853 16.418 31.0548 17.3992 31.0548H33.2166C34.1978 31.0548 34.9961 31.853 34.9961 32.8342C34.9961 33.8154 34.1978 34.6137 33.2166 34.6137H17.3992C16.418 34.6137 15.6197 33.8154 15.6197 32.8342ZM18.3878 41.1384V36.5909H32.228V41.1384C32.228 44.9541 29.1237 48.0585 25.3079 48.0585C21.4922 48.0585 18.3878 44.9541 18.3878 41.1384ZM25.3454 51.222C25.3371 51.2218 25.3289 51.2207 25.3206 51.2207C25.3123 51.2207 25.3041 51.2218 25.2958 51.222H24.2207C24.1659 51.222 24.1216 51.1776 24.1216 51.1231V49.9564C24.5098 50.0084 24.9058 50.0357 25.3079 50.0357C25.7101 50.0357 26.106 50.0084 26.4942 49.9564V51.1231C26.4942 51.1776 26.4499 51.222 26.3954 51.222H25.3454Z" fill="#F7731E"/>
<path d="M43.1788 56.6235C42.787 56.2577 42.1766 56.2718 41.8019 56.6506C41.7943 56.6583 41.7867 56.6662 41.7795 56.6738C41.4069 57.073 41.4285 57.6984 41.8276 58.071C42.0182 58.2489 42.2603 58.3369 42.5019 58.3369C42.7573 58.3369 43.012 58.2385 43.2045 58.044C43.2121 58.0362 43.2197 58.0283 43.2269 58.0207C43.5995 57.6215 43.5779 56.9961 43.1788 56.6235Z" fill="#F7731E"/>
<path d="M50.5486 38.3021C50.1082 32.2501 47.4996 26.5511 43.2037 22.255C38.9812 18.0322 33.3407 15.4475 27.3213 14.977C21.3752 14.512 15.4574 16.1256 10.656 19.52C10.2102 19.8352 10.1043 20.4522 10.4195 20.8979C10.7345 21.3437 11.3516 21.4498 11.7974 21.1345C20.9787 14.6437 33.8794 15.7263 41.8056 23.653C49.9968 31.8446 50.9872 44.5653 44.1605 53.8999C43.8382 54.3406 43.9342 54.9591 44.375 55.2815C44.5509 55.4102 44.7553 55.4722 44.9578 55.4722C45.2624 55.4722 45.5629 55.3319 45.7566 55.0671C49.2827 50.2453 50.9847 44.2914 50.5486 38.3021Z" fill="#F7731E"/>
<path d="M8.69057 22.3692C8.30275 21.985 7.67677 21.9875 7.29241 22.3755L7.2763 22.3919C6.89193 22.7796 6.8948 23.4056 7.28253 23.7899C7.4753 23.9809 7.7269 24.0763 7.97849 24.0763C8.23286 24.0763 8.48732 23.9787 8.68069 23.7837L8.6968 23.7673C9.08116 23.3796 9.0783 22.7536 8.69057 22.3692Z" fill="#F7731E"/>
<path d="M27.5368 40.7723C27.3597 40.4685 27.0344 40.2816 26.6827 40.2816H25.9762L27.2774 38.638C27.6163 38.2099 27.5439 37.5881 27.1159 37.2493C26.6878 36.9103 26.066 36.9828 25.7271 37.4108L23.1575 40.6566C22.9223 40.9539 22.8777 41.3595 23.0428 41.7007C23.2079 42.042 23.5536 42.2588 23.9327 42.2588H24.9865L23.7759 44.3963C23.5068 44.8714 23.6739 45.4747 24.1488 45.7437C24.3028 45.8309 24.47 45.8723 24.6352 45.8723C24.9799 45.8722 25.3146 45.6918 25.4965 45.3707L27.5429 41.7574C27.7163 41.4513 27.714 41.0762 27.5368 40.7723Z" fill="#F7731E"/>
</svg>
