<svg width="89" height="81" viewBox="0 0 89 81" fill="none" xmlns="http://www.w3.org/2000/svg">
<path d="M43.4384 2.19629C46.3668 -0.732099 51.1146 -0.732098 54.043 2.1963L86.5556 34.7089C89.484 37.6373 89.484 42.3851 86.5556 45.3135L54.043 77.8261C51.1146 80.7545 46.3668 80.7545 43.4384 77.8261L10.9258 45.3135C7.99739 42.3851 7.99739 37.6373 10.9258 34.7089L43.4384 2.19629Z" fill="white"/>
<path d="M43.1276 50.0374C42.8603 49.9266 42.5526 49.9878 42.3479 50.1924L34.5297 58.0106C34.3251 58.2153 34.2639 58.523 34.3747 58.7903C34.4853 59.0577 34.7464 59.2319 35.0357 59.2319H42.8539C43.249 59.2319 43.5693 58.9117 43.5693 58.5165V50.6983C43.5692 50.409 43.3949 50.1482 43.1276 50.0374ZM36.7626 57.8012L42.1383 52.4255V57.8012H36.7626Z" fill="#F7731E"/>
<path d="M48.2995 38.5704C48.0322 38.4596 47.7245 38.5208 47.5198 38.7254L45.3772 40.868V26.2998C45.3772 25.9046 45.0569 25.5844 44.6618 25.5844H39.165L41.1604 23.5891C41.1607 23.5888 41.1609 23.5884 41.1612 23.5881L43.0838 21.6655C43.4958 21.2536 43.7226 20.7056 43.7226 20.123C43.7226 19.5404 43.4958 18.9926 43.0838 18.5805L40.8606 16.3573C40.4487 15.9454 39.9007 15.7185 39.3181 15.7185C38.7355 15.7185 38.1876 15.9454 37.7756 16.3573L35.8521 18.2808L33.5277 20.6052L28.5486 25.5843H6.34206V18.5068C6.34206 18.1117 6.02172 17.7914 5.62665 17.7914C2.52416 17.7916 0 20.3156 0 23.4183V53.804C0 53.8568 0.00609264 53.9082 0.0169452 53.9577C0.11576 55.2742 0.685327 56.4974 1.63721 57.426C2.65468 58.4183 3.99782 58.9648 5.41931 58.9648H27.2803L23.1631 63.082C22.9585 63.2867 22.8973 63.5943 23.008 63.8617C23.1187 64.129 23.3797 64.3033 23.669 64.3033H48.0257C48.4208 64.3033 48.7411 63.9831 48.7411 63.5879V39.2313C48.7411 38.942 48.5667 38.6811 48.2995 38.5704ZM38.7876 17.3691C39.08 17.0765 39.5565 17.0765 39.8489 17.3691L42.0723 19.5925C42.3649 19.885 42.3649 20.3613 42.0723 20.6539L40.6547 22.0716L37.3698 18.7868L38.7876 17.3691ZM36.358 19.7986L39.6428 23.0833L38.3301 24.396L35.0455 21.1113L36.358 19.7986ZM47.3105 47.27H45.9906C45.5954 47.27 45.2752 47.5903 45.2752 47.9854C45.2752 48.3806 45.5954 48.7008 45.9906 48.7008H47.3105V50.8567H45.9906C45.5954 50.8567 45.2752 51.1769 45.2752 51.5721C45.2752 51.9672 45.5954 52.2875 45.9906 52.2875H47.3105V54.4432H45.9906C45.5954 54.4432 45.2752 54.7635 45.2752 55.1586C45.2752 55.5538 45.5954 55.8741 45.9906 55.8741H47.3105V58.0299H45.9906C45.5954 58.0299 45.2752 58.3502 45.2752 58.7453C45.2752 59.1405 45.5954 59.4607 45.9906 59.4607H47.3105V62.8728H25.396L32.6223 55.6466C32.9017 55.3671 32.9017 54.9143 32.6223 54.6349C32.5902 54.6028 32.5557 54.575 32.5197 54.5502C32.2411 54.3595 31.8579 54.3875 31.6104 54.6349L28.7111 57.5342H5.41941C3.24966 57.5342 1.50298 55.8403 1.43425 53.6744C1.43834 53.5385 1.44891 53.4037 1.46585 53.2704C1.46595 53.2696 1.46604 53.2689 1.46614 53.2681C1.47413 53.2048 1.48375 53.1418 1.4947 53.0792C1.49593 53.072 1.49727 53.0649 1.4985 53.0577C1.5085 53.0019 1.51973 52.9463 1.53201 52.8909C1.53544 52.8754 1.53906 52.86 1.54268 52.8447C1.55353 52.7978 1.56524 52.7513 1.5778 52.7049C1.58466 52.6798 1.5918 52.655 1.59913 52.6299C1.6096 52.5935 1.62045 52.5573 1.63197 52.5214C1.64349 52.4855 1.65577 52.45 1.66824 52.4145C1.6769 52.3896 1.68547 52.3648 1.6948 52.3401C1.71222 52.2933 1.73069 52.2469 1.74973 52.201C1.75516 52.1877 1.76049 52.1743 1.7661 52.1611C1.79057 52.104 1.81599 52.0475 1.84283 51.9917C1.84398 51.9893 1.84502 51.987 1.84617 51.9846C2.40574 50.8266 3.48195 49.9632 4.77349 49.6954C4.77711 49.6946 4.78073 49.6937 4.78434 49.693C4.84356 49.6809 4.90334 49.6705 4.9635 49.6609C4.9735 49.6593 4.9835 49.6573 4.99368 49.6558C5.04804 49.6475 5.10297 49.641 5.1579 49.6348C5.17332 49.6331 5.18865 49.6307 5.20416 49.6292C5.25719 49.6239 5.31069 49.6203 5.36419 49.617C5.38114 49.616 5.39808 49.6142 5.41503 49.6133C5.48509 49.6098 5.55573 49.608 5.62665 49.608C6.02172 49.608 6.34206 49.2877 6.34206 48.8926V43.7053C6.34206 43.3102 6.02172 42.9899 5.62665 42.9899C5.23158 42.9899 4.91124 43.3102 4.91124 43.7053V48.2222C3.70318 48.375 2.58185 48.9138 1.69766 49.7772C1.60465 49.868 1.5165 49.9625 1.43063 50.0584V23.4183C1.43063 21.3486 2.93722 19.6239 4.91115 19.2833V26.2998V40.8438V40.8439C4.91115 41.239 5.23149 41.5593 5.62656 41.5593C6.02162 41.5593 6.34196 41.239 6.34196 40.8439V40.8438V27.0152H27.1179L23.163 30.9701C22.8836 31.2496 22.8836 31.7025 23.163 31.9819C23.4424 32.2612 23.8953 32.2612 24.1747 31.9819L29.3508 26.8057C29.351 26.8055 29.3511 26.8053 29.3513 26.8052L34.0336 22.1229L37.3182 25.4077L36.9328 25.7931C36.9325 25.7934 36.9322 25.7936 36.9319 25.7939L22.5068 40.2192L19.2221 36.9345L22.0655 34.0912C22.3449 33.8117 22.3449 33.3588 22.0655 33.0794C21.7861 32.8001 21.3331 32.8001 21.0538 33.0794L17.7045 36.4286C17.6866 36.4465 17.6698 36.4655 17.6541 36.4849C17.6489 36.4914 17.6442 36.4983 17.6392 36.5051C17.6292 36.5185 17.6193 36.532 17.61 36.5461C17.6048 36.5543 17.6 36.5627 17.5951 36.5711C17.5872 36.5845 17.5796 36.598 17.5726 36.6118C17.568 36.6207 17.5639 36.6298 17.5598 36.6391C17.5534 36.6531 17.5475 36.6674 17.5421 36.6817C17.5401 36.6867 17.5377 36.6915 17.5359 36.6965L16.1421 40.6448L15.1918 43.3369C15.1792 43.3727 15.1702 43.4091 15.1634 43.4457H12.7843C12.3892 43.4457 12.0689 43.766 12.0689 44.1611C12.0689 44.5563 12.3892 44.8766 12.7843 44.8766H32.5962C32.9914 44.8766 33.3116 44.5563 33.3116 44.1611C33.3116 43.766 32.9914 43.4457 32.5962 43.4457H18.382L22.7449 41.9056C22.7485 41.9043 22.7519 41.9025 22.7555 41.9012C22.7725 41.8949 22.7891 41.8878 22.8056 41.8803C22.8122 41.8773 22.8188 41.8744 22.8251 41.8713C22.8423 41.8627 22.8591 41.8533 22.8757 41.8432C22.881 41.8399 22.8865 41.837 22.8918 41.8337C22.909 41.8226 22.9258 41.8105 22.9422 41.7978C22.9463 41.7946 22.9506 41.7919 22.9546 41.7886C22.9745 41.7726 22.994 41.7554 23.0125 41.7369L37.7342 27.0153H43.9463V42.2989L33.713 52.5323C33.4336 52.8118 33.4336 53.2647 33.713 53.5441C33.7304 53.5615 33.7486 53.5779 33.7673 53.5932C33.8985 53.7001 34.0587 53.7536 34.2188 53.7536C34.379 53.7536 34.5393 53.7001 34.6704 53.5932C34.6891 53.578 34.7073 53.5615 34.7247 53.5441C34.725 53.5438 34.7247 53.5441 34.725 53.5438L47.3105 40.9582V47.27ZM21.1983 40.934L19.1491 41.6575L17.7838 40.2921L18.5072 38.2429L21.1983 40.934Z" fill="#F7731E"/>
</svg>
