<svg width="84" height="81" viewBox="0 0 84 81" fill="none" xmlns="http://www.w3.org/2000/svg">
<path d="M34.7089 2.19629C37.6373 -0.732099 42.3851 -0.732098 45.3135 2.1963L77.8261 34.7089C80.7545 37.6373 80.7545 42.3851 77.8261 45.3135L45.3135 77.8261C42.3851 80.7545 37.6373 80.7545 34.7089 77.8261L2.19629 45.3135C-0.732099 42.3851 -0.732098 37.6373 2.1963 34.7089L34.7089 2.19629Z" fill="white"/>
<path d="M80.5661 36.6132L77.8185 34.4149C77.8075 34.4061 77.7966 34.3951 77.7856 34.3863L80.3435 33.8745C80.6854 33.8064 80.9315 33.5061 80.9315 33.1568V30.96C80.9315 30.5557 80.6034 30.2277 80.1992 30.2277H76.5378C76.1335 30.2277 75.8055 30.5557 75.8055 30.96V32.2429C75.7886 32.2202 75.7718 32.1975 75.7549 32.1748C75.7088 32.0474 75.6268 31.9434 75.5228 31.8607C75.1105 31.277 74.7576 30.6927 74.5276 30.1874L73.2901 27.4655C72.5014 25.7292 70.3895 24.3694 68.4826 24.3694H50.9077C49.0008 24.3694 46.8889 25.7292 46.1002 27.4655L44.8634 30.1867C44.6335 30.692 44.2805 31.277 43.8682 31.8607C43.7642 31.9434 43.683 32.0474 43.6361 32.1748C43.6193 32.1975 43.6031 32.2195 43.5856 32.2429V30.96C43.5856 30.5557 43.2575 30.2277 42.8533 30.2277H39.1911C38.7869 30.2277 38.4588 30.5557 38.4588 30.96V33.1568C38.4588 33.5061 38.7049 33.8064 39.0476 33.8745L41.6055 34.3863C41.5945 34.3951 41.5835 34.4061 41.5725 34.4149L38.8242 36.6132C37.3875 37.7629 36.262 40.1048 36.262 41.9443V54.3932C36.262 55.6044 37.2476 56.59 38.4588 56.59H44.3171C45.5283 56.59 46.514 55.6044 46.514 54.3932V52.9286H72.8763V54.3932C72.8763 55.6044 73.862 56.59 75.0732 56.59H80.9315C82.1427 56.59 83.1283 55.6044 83.1283 54.3932V41.9443C83.1283 40.1048 82.0028 37.7629 80.5661 36.6132V36.6132ZM73.9118 51.464L72.2326 49.7849C71.5201 49.0724 70.2225 48.5349 69.2149 48.5349H49.8093C48.8016 48.5349 47.504 49.0724 46.7915 49.7849L45.1124 51.464H39.9234C38.7122 51.464 37.7265 50.4784 37.7265 49.2672V45.6057H38.4588V46.338C38.4588 47.9534 39.7725 49.2672 41.388 49.2672H43.5848C43.9891 49.2672 44.3171 48.9391 44.3171 48.5349C44.3171 48.1306 43.9891 47.8026 43.5848 47.8026H41.388C40.5803 47.8026 39.9234 47.1457 39.9234 46.338V45.6057H41.388C41.9958 45.6057 42.9404 45.9968 43.3703 46.4266C43.5131 46.5694 43.7005 46.6412 43.888 46.6412C44.0755 46.6412 44.2629 46.5694 44.4057 46.4266C44.6921 46.1403 44.6921 45.6775 44.4057 45.3912C43.6932 44.6786 42.3963 44.1411 41.388 44.1411H37.7265V41.9443C37.7265 41.6858 37.7675 41.4068 37.8254 41.1219C38.2941 41.6111 38.9758 41.9443 39.9234 41.9443H45.7817C45.9758 41.9443 46.1618 41.8674 46.2994 41.7297L47.2463 40.7829L48.1931 41.7297C48.3301 41.8674 48.5168 41.9443 48.7108 41.9443H57.1951L59.1774 43.9266C59.3202 44.0694 59.5077 44.1411 59.6952 44.1411C59.8826 44.1411 60.0701 44.0694 60.2129 43.9266L62.1952 41.9443H70.6795C70.8735 41.9443 71.0603 41.8674 71.1972 41.7297L72.144 40.7829L73.0909 41.7297C73.2278 41.8674 73.4146 41.9443 73.6086 41.9443H79.4669C80.4145 41.9443 81.0962 41.6111 81.5649 41.1219C81.6228 41.4068 81.6638 41.6858 81.6638 41.9443V44.1411H78.0023C76.9947 44.1411 75.6971 44.6786 74.9846 45.3912C74.6983 45.6775 74.6983 46.1403 74.9846 46.4266C75.1274 46.5694 75.3148 46.6412 75.5023 46.6412C75.6898 46.6412 75.8772 46.5694 76.02 46.4266C76.4499 45.9968 77.3945 45.6057 78.0023 45.6057H79.4669V46.338C79.4669 47.1457 78.81 47.8026 78.0023 47.8026H75.8055C75.4013 47.8026 75.0732 48.1306 75.0732 48.5349C75.0732 48.9391 75.4013 49.2672 75.8055 49.2672H78.0023C79.6178 49.2672 80.9315 47.9534 80.9315 46.338V45.6057H81.6638V49.2672C81.6638 50.4784 80.6781 51.464 79.4669 51.464H73.9118ZM71.8409 51.464H47.1833L47.827 50.8203C48.2568 50.3905 49.2015 49.9994 49.8093 49.9994H69.2149C69.8227 49.9994 70.7673 50.3905 71.1972 50.8203L71.8409 51.464ZM44.7272 33.1568H74.6631C75.3727 34.0949 76.1833 34.9824 76.9032 35.5587L77.7841 36.2632L72.6046 38.3348C72.6039 38.3348 72.6039 38.3356 72.6032 38.3356C72.5146 38.3714 72.4311 38.4249 72.3593 38.4967L71.627 39.229L70.3763 40.4797H61.892C61.698 40.4797 61.5112 40.5566 61.3743 40.6943L59.6952 42.3734L58.016 40.6943C57.8791 40.5566 57.6923 40.4797 57.4983 40.4797H49.014L47.764 39.2297L47.0317 38.4974C46.9599 38.4256 46.8765 38.3722 46.7879 38.3363C46.7871 38.3363 46.7871 38.3356 46.7864 38.3356L41.6069 36.2639L42.4879 35.5595C43.207 34.9824 44.0176 34.0949 44.7272 33.1568V33.1568ZM80.8883 39.322C80.7411 40.0872 80.2666 40.4797 79.4669 40.4797H73.9118L73.1795 39.7474L73.2879 39.639L79.0986 37.3148L79.6507 37.7571C80.115 38.1283 80.5434 38.6929 80.8883 39.322ZM77.27 31.6923H79.4669V32.5564L77.27 32.9957V31.6923ZM46.1954 30.793L47.4323 28.0718C47.9844 26.8584 49.5757 25.834 50.9077 25.834H68.4826C69.8146 25.834 71.4059 26.8584 71.9573 28.0711L73.1949 30.793C73.3238 31.0757 73.4914 31.381 73.6752 31.6923H45.7151C45.8989 31.381 46.0673 31.0757 46.1954 30.793V30.793ZM39.9234 31.6923H42.1203V32.9957L39.9234 32.5564V31.6923ZM39.7389 37.7571L40.291 37.3148L46.1024 39.639L46.2108 39.7474L45.4785 40.4797H39.9234C39.1237 40.4797 38.6492 40.0872 38.502 39.322C38.8469 38.6929 39.2746 38.1283 39.7389 37.7571ZM44.3171 55.1254H38.4588C38.0553 55.1254 37.7265 54.7967 37.7265 54.3932V52.178C38.3402 52.6423 39.0959 52.9286 39.9234 52.9286H45.0494V54.3932C45.0494 54.7967 44.7206 55.1254 44.3171 55.1254ZM80.9315 55.1254H75.0732C74.6697 55.1254 74.3409 54.7967 74.3409 54.3932V52.9286H79.4669C80.2944 52.9286 81.0501 52.6423 81.6638 52.178V54.3932C81.6638 54.7967 81.335 55.1254 80.9315 55.1254Z" fill="#F7731E"/>
</svg>
