<svg width="90" height="81" viewBox="0 0 90 81" fill="none" xmlns="http://www.w3.org/2000/svg">
<path d="M44.3758 2.19629C47.3042 -0.732099 52.052 -0.732098 54.9804 2.1963L87.493 34.7089C90.4214 37.6373 90.4214 42.3851 87.493 45.3135L54.9804 77.8261C52.052 80.7545 47.3042 80.7545 44.3758 77.8261L11.8632 45.3135C8.93477 42.3851 8.93477 37.6373 11.8632 34.7089L44.3758 2.19629Z" fill="white"/>
<path d="M35.6028 61.0696H12.4196C11.9626 61.0696 11.5917 61.4406 11.5917 61.8976V63.5536C11.5917 64.0106 11.9626 64.3815 12.4196 64.3815C12.8766 64.3815 13.2476 64.0106 13.2476 63.5536V62.7256H35.6028C36.0598 62.7256 36.4308 62.3547 36.4308 61.8977C36.4308 61.4407 36.0599 61.0696 35.6028 61.0696Z" fill="#F7731E"/>
<path d="M18.2155 35.4025C18.2155 35.8595 18.5864 36.2304 19.0434 36.2304H22.3554C22.8124 36.2304 23.1833 35.8595 23.1833 35.4025V30.4346C23.1833 29.9776 22.8124 29.6067 22.3554 29.6067H19.0435C18.5865 29.6067 18.2156 29.9776 18.2156 30.4346V35.4025H18.2155ZM19.8714 31.2627H21.5274V34.5745H19.8714V31.2627Z" fill="#F7731E"/>
<path d="M10.7636 24.6388H0.82794C0.370938 24.6388 0 25.0097 0 25.4667V42.0262C0 42.4832 0.370938 42.8542 0.82794 42.8542C1.28494 42.8542 1.65588 42.4832 1.65588 42.0262V26.2948H10.7636C11.2206 26.2948 11.5916 25.9238 11.5916 25.4668C11.5916 25.0098 11.2207 24.6388 10.7636 24.6388Z" fill="#F7731E"/>
<path d="M39.7427 55.2737C39.7427 55.7307 40.1136 56.1017 40.5706 56.1017H43.8825C44.3395 56.1017 44.7104 55.7307 44.7104 55.2737V50.3059C44.7104 49.8489 44.3395 49.478 43.8825 49.478H40.5706C40.1136 49.478 39.7427 49.8489 39.7427 50.3059V55.2737ZM41.3987 51.1339H43.0546V54.4458H41.3987V51.1339Z" fill="#F7731E"/>
<path d="M4.1399 44.5102C0.0471556 44.5102 0 55.1662 0 55.2738C0 57.2734 1.42495 58.9451 3.31186 59.3301V63.5536C3.31186 64.0106 3.6828 64.3815 4.1398 64.3815C4.5968 64.3815 4.96774 64.0106 4.96774 63.5536V59.3301C6.85464 58.9451 8.2796 57.2734 8.2796 55.2738C8.2797 55.1662 8.23254 44.5102 4.1399 44.5102ZM4.1399 57.7577C2.77044 57.7577 1.65598 56.6433 1.65598 55.2738C1.65598 51.1489 2.76384 46.1661 4.1399 46.1661C5.51595 46.1661 6.62381 51.1489 6.62381 55.2738C6.62381 56.6433 5.50935 57.7577 4.1399 57.7577Z" fill="#F7731E"/>
<path d="M9.10779 39.5424H5.79584C5.33883 39.5424 4.9679 39.9133 4.9679 40.3703V42.0263C4.9679 42.4833 5.33883 42.8542 5.79584 42.8542C6.25284 42.8542 6.62377 42.4833 6.62377 42.0263V41.1983H8.27975V45.3382C8.27975 45.7952 8.65069 46.1662 9.10769 46.1662C9.56469 46.1662 9.93563 45.7952 9.93563 45.3382V40.3704C9.93573 39.9133 9.56479 39.5424 9.10779 39.5424Z" fill="#F7731E"/>
<path d="M40.5706 36.2305H43.8825C44.3395 36.2305 44.7104 35.8596 44.7104 35.4026V30.4348C44.7104 29.9778 44.3395 29.6068 43.8825 29.6068H40.5706C40.1136 29.6068 39.7427 29.9778 39.7427 30.4348V35.4026C39.7427 35.8596 40.1136 36.2305 40.5706 36.2305ZM41.3987 31.2627H43.0546V34.5746H41.3987V31.2627Z" fill="#F7731E"/>
<path d="M9.10779 29.6067H5.79584C5.33883 29.6067 4.9679 29.9776 4.9679 30.4346V35.4025C4.9679 35.8595 5.33883 36.2304 5.79584 36.2304H9.10769C9.56469 36.2304 9.93563 35.8595 9.93563 35.4025V30.4346C9.93573 29.9776 9.56479 29.6067 9.10779 29.6067ZM8.27975 34.5745H6.62387V31.2627H8.27985V34.5745H8.27975Z" fill="#F7731E"/>
<path d="M26.4951 35.4025C26.4951 35.8595 26.8661 36.2304 27.3231 36.2304H30.6349C31.0919 36.2304 31.4629 35.8595 31.4629 35.4025V30.4346C31.4629 29.9776 31.0919 29.6067 30.6349 29.6067H27.3231C26.8661 29.6067 26.4951 29.9776 26.4951 30.4346V35.4025ZM28.151 31.2627H29.807V34.5745H28.151V31.2627Z" fill="#F7731E"/>
<path d="M48.8504 24.6388H38.9147C38.4577 24.6388 38.0868 25.0097 38.0868 25.4667C38.0868 25.9237 38.4577 26.2947 38.9147 26.2947H48.0225V59.566C47.7625 59.4733 47.4868 59.4137 47.1945 59.4137C47.0513 59.4137 46.9089 59.4261 46.769 59.4509C46.1977 58.4218 45.1106 57.7577 43.8827 57.7577C42.6548 57.7577 41.5677 58.4218 40.9964 59.4509C40.8565 59.4261 40.714 59.4137 40.5708 59.4137C39.2014 59.4137 38.0869 60.5281 38.0869 61.8976C38.0869 63.2671 39.2014 64.3815 40.5708 64.3815H47.1944C48.5639 64.3815 49.6783 63.2671 49.6783 61.8976V25.4667C49.6783 25.0097 49.3074 24.6388 48.8504 24.6388ZM47.1944 62.7255H40.5706C40.1144 62.7255 39.7427 62.3538 39.7427 61.8976C39.7427 61.4414 40.1144 61.0697 40.5706 61.0697C40.7295 61.0697 40.8802 61.1152 41.0194 61.2046C41.2462 61.3504 41.5294 61.3768 41.7795 61.2758C42.0295 61.1748 42.2142 60.9579 42.2746 60.6954C42.4494 59.9411 43.1109 59.4137 43.8826 59.4137C44.6542 59.4137 45.3158 59.9411 45.4905 60.6954C45.551 60.9579 45.7356 61.1748 45.9857 61.2758C46.2349 61.3768 46.5188 61.3504 46.7458 61.2046C47.2848 60.8569 48.0225 61.2824 48.0225 61.8976C48.0224 62.3538 47.6507 62.7255 47.1944 62.7255Z" fill="#F7731E"/>
<path d="M27.3231 26.2947H30.6349C31.0919 26.2947 31.4629 25.9238 31.4629 25.4668V20.499C31.4629 20.042 31.0919 19.671 30.6349 19.671H27.3231C26.8661 19.671 26.4951 20.042 26.4951 20.499V25.4668C26.4951 25.9238 26.8661 26.2947 27.3231 26.2947ZM28.151 21.3269H29.807V24.6388H28.151V21.3269Z" fill="#F7731E"/>
<path d="M26.4951 45.3381C26.4951 45.7951 26.8661 46.1661 27.3231 46.1661H30.6349C31.0919 46.1661 31.4629 45.7951 31.4629 45.3381V40.3703C31.4629 39.9133 31.0919 39.5424 30.6349 39.5424H27.3231C26.8661 39.5424 26.4951 39.9133 26.4951 40.3703V45.3381ZM28.151 41.1983H29.807V44.5102H28.151V41.1983Z" fill="#F7731E"/>
<path d="M19.0434 26.2947H22.3553C22.8123 26.2947 23.1832 25.9238 23.1832 25.4668V20.499C23.1832 20.042 22.8123 19.671 22.3553 19.671H19.0434C18.5864 19.671 18.2155 20.042 18.2155 20.499V25.4668C18.2154 25.9238 18.5863 26.2947 19.0434 26.2947ZM19.8713 21.3269H21.5273V24.6388H19.8713V21.3269Z" fill="#F7731E"/>
<path d="M24.2513 54.686C24.1022 54.8433 24.0111 55.0586 24.0111 55.2739C24.0111 55.4892 24.1022 55.7044 24.2513 55.8618C24.4085 56.0108 24.6238 56.1019 24.8391 56.1019C25.0545 56.1019 25.2697 56.0108 25.427 55.8618C25.5761 55.7045 25.6672 55.4892 25.6672 55.2739C25.6672 55.0586 25.5761 54.8434 25.427 54.686C25.1124 54.3796 24.5659 54.3796 24.2513 54.686Z" fill="#F7731E"/>
<path d="M18.2155 45.3381C18.2155 45.7951 18.5864 46.1661 19.0434 46.1661H22.3554C22.8124 46.1661 23.1833 45.7951 23.1833 45.3381V40.3703C23.1833 39.9133 22.8124 39.5424 22.3554 39.5424H19.0435C18.5865 39.5424 18.2156 39.9133 18.2156 40.3703V45.3381H18.2155ZM19.8714 41.1983H21.5274V44.5102H19.8714V41.1983Z" fill="#F7731E"/>
<path d="M16.5596 50.3059C16.5596 50.7629 16.9305 51.1338 17.3875 51.1338H19.8714V58.5856C19.8714 59.0426 20.2424 59.4135 20.6994 59.4135C21.1564 59.4135 21.5273 59.0426 21.5273 58.5856V51.1338H28.1511V58.5856C28.1511 59.0426 28.5221 59.4135 28.9791 59.4135C29.4361 59.4135 29.807 59.0426 29.807 58.5856V51.1338H32.2909C32.7479 51.1338 33.1189 50.7629 33.1189 50.3059C33.1189 49.8489 32.7479 49.478 32.2909 49.478H17.3875C16.9305 49.478 16.5596 49.8489 16.5596 50.3059Z" fill="#F7731E"/>
<path d="M39.7427 45.3381C39.7427 45.7951 40.1136 46.1661 40.5706 46.1661H43.8825C44.3395 46.1661 44.7104 45.7951 44.7104 45.3381V40.3703C44.7104 39.9133 44.3395 39.5424 43.8825 39.5424H40.5706C40.1136 39.5424 39.7427 39.9133 39.7427 40.3703V45.3381ZM41.3987 41.1983H43.0546V44.5102H41.3987V41.1983Z" fill="#F7731E"/>
<path d="M35.6028 14.7031H14.0756C13.6186 14.7031 13.2477 15.0741 13.2477 15.5311V58.5856C13.2477 59.0426 13.6186 59.4135 14.0756 59.4135C14.5326 59.4135 14.9036 59.0426 14.9036 58.5856V16.359H34.7749V58.5856C34.7749 59.0426 35.1458 59.4135 35.6028 59.4135C36.0598 59.4135 36.4308 59.0426 36.4308 58.5856V15.5311C36.4309 15.0741 36.0599 14.7031 35.6028 14.7031Z" fill="#F7731E"/>
</svg>
