<svg width="100" height="100" viewBox="0 0 100 100" fill="none" xmlns="http://www.w3.org/2000/svg">
<path d="M34.7089 12.1963C37.6373 9.2679 42.3851 9.2679 45.3135 12.1963L77.8261 44.7089C80.7545 47.6373 80.7545 52.3851 77.8261 55.3135L45.3135 87.8261C42.3851 90.7545 37.6373 90.7545 34.7089 87.8261L2.19629 55.3135C-0.732099 52.3851 -0.732098 47.6373 2.1963 44.7089L34.7089 12.1963Z" fill="white"/>
<path d="M99.6125 58.3357C99.2115 58.0635 98.6644 58.1686 98.3907 58.5688C98.317 58.6767 96.5468 61.2109 93.2959 61.2109C90.0449 61.2109 88.2747 58.6767 88.2028 58.5717C87.879 58.0587 87.0644 58.0593 86.7409 58.5725C86.7232 58.5988 84.9328 61.211 81.6528 61.211C78.9035 61.211 77.2135 59.3989 76.7137 58.776V45.1323H99.1194C99.6057 45.1323 99.9999 44.7382 99.9999 44.2518C99.9999 43.7655 99.6057 43.3713 99.1194 43.3713H92.0388V36.9542C92.0388 31.1324 87.3587 26.3509 81.6061 26.2952C78.776 26.2668 76.1071 27.3519 74.0919 29.3476C73.1163 30.3139 72.3549 31.4361 71.8269 32.6569C70.1993 28.9506 66.5392 26.3363 62.2946 26.2952C62.2597 26.2949 62.2248 26.2948 62.1898 26.2948C59.3984 26.2948 56.7706 27.3765 54.7803 29.3476C52.7648 31.3438 51.6546 34.0015 51.6546 36.831V43.3715H40.9581C40.4717 43.3715 40.0776 43.7656 40.0776 44.252C40.0776 44.7383 40.4717 45.1325 40.9581 45.1325H51.6546V48.6095C51.6546 49.0958 52.0488 49.49 52.5351 49.49C53.0215 49.49 53.4156 49.0958 53.4156 48.6095V36.831C53.4156 34.4749 54.3403 32.2617 56.0195 30.5987C57.6982 28.9364 59.9188 28.0281 62.2777 28.0561C67.0685 28.1024 70.9663 32.0941 70.9663 36.9542V43.3713H68.7407V36.831C68.7407 33.2809 65.8535 30.3431 62.3048 30.2823C62.2673 30.2817 62.2303 30.2813 62.1929 30.2813C60.4935 30.2813 58.8833 30.946 57.6481 32.1602C56.3727 33.414 55.6412 35.1531 55.6412 36.9315V60.563C54.4674 59.9735 53.7151 59.1413 53.4155 58.7659V52.1313C53.4155 51.6449 53.0214 51.2508 52.535 51.2508C52.0487 51.2508 51.6545 51.6449 51.6545 52.1313V58.7748C51.153 59.4001 49.4633 61.2109 46.715 61.2109C43.464 61.2109 41.6939 58.6767 41.6219 58.5717C41.3506 58.1682 40.8035 58.0611 40.4 58.3324C39.9965 58.6036 39.8893 59.1507 40.1607 59.5543C40.2544 59.6938 42.5068 62.9719 46.7149 62.9719C49.5919 62.9719 51.5547 61.4399 52.5385 60.4259C53.5224 61.4399 55.4853 62.9719 58.3622 62.9719C61.2385 62.9719 63.199 61.4407 64.182 60.4264C65.1661 61.4404 67.1287 62.9719 70.005 62.9719C72.8821 62.9719 74.8448 61.4399 75.8287 60.4259C76.8125 61.4399 78.7754 62.9719 81.6523 62.9719C84.5286 62.9719 86.4891 61.4407 87.4722 60.4264C88.4562 61.4404 90.4189 62.9719 93.2952 62.9719C97.5034 62.9719 99.7557 59.6938 99.8494 59.5543C100.121 59.1518 100.014 58.6078 99.6125 58.3357ZM57.4022 51.2509H70.9663V53.716H57.4022V51.2509ZM70.9663 49.4899H57.4022V45.1323H70.9663V49.4899ZM58.8827 33.4161C59.8055 32.509 61.0098 32.0215 62.2746 32.043C64.8691 32.0876 66.9798 34.2354 66.9798 36.8311V43.3716H57.4023V36.9317C57.4022 35.6222 57.9419 34.3409 58.8827 33.4161V33.4161ZM64.9124 58.5717C64.5889 58.0615 63.7784 58.0611 63.4525 58.5696C63.379 58.6774 61.6128 61.2109 58.3625 61.2109C58.0261 61.2109 57.7066 61.1826 57.4022 61.1338V55.4769H70.9663V61.1337C70.6618 61.1824 70.342 61.2109 70.0054 61.2109C66.7545 61.2109 64.9843 58.6767 64.9124 58.5717V58.5717ZM72.7272 60.5626V36.831C72.7272 34.4749 73.6518 32.2617 75.3311 30.5987C77.0097 28.9364 79.2306 28.0281 81.5891 28.0561C86.38 28.1024 90.2778 32.0941 90.2778 36.9542V43.3713H88.0522V41.4141C88.0522 40.9277 87.6581 40.5336 87.1717 40.5336C86.6854 40.5336 86.2912 40.9277 86.2912 41.4141V43.3713H76.7136V36.9314C76.7136 35.6221 77.2533 34.3408 78.1941 33.4159C79.1169 32.5088 80.3189 32.0212 81.586 32.0428C84.1805 32.0873 86.2912 34.2352 86.2912 36.8309V37.8922C86.2912 38.3785 86.6854 38.7727 87.1717 38.7727C87.6581 38.7727 88.0522 38.3785 88.0522 37.8922V36.8309C88.0522 33.2808 85.165 30.343 81.6163 30.2821C81.5788 30.2816 81.5418 30.2812 81.5044 30.2812C79.805 30.2812 78.195 30.9459 76.9597 32.1601C75.6843 33.4139 74.9527 35.153 74.9527 36.9314V58.7647C74.6523 59.1416 73.9 59.9735 72.7272 60.5626Z" fill="#F7731E"/>
<path d="M64.1862 71.9663C60.9352 71.9663 59.1651 69.4322 59.0931 69.3272C58.7699 68.8172 57.9599 68.8167 57.6337 69.3244C57.56 69.4323 55.7898 71.9665 52.5389 71.9665C49.288 71.9665 47.5177 69.4323 47.4458 69.3273C47.1744 68.9237 46.6274 68.8166 46.2239 69.0879C45.8204 69.3592 45.7131 69.9062 45.9845 70.3097C46.0782 70.4493 48.3305 73.7274 52.5388 73.7274C55.4158 73.7274 57.3785 72.1953 58.3624 71.1813C59.3462 72.1953 61.3091 73.7274 64.1861 73.7274C64.6725 73.7274 65.0666 73.3332 65.0666 72.8469C65.0666 72.3605 64.6726 71.9663 64.1862 71.9663V71.9663Z" fill="#F7731E"/>
<path d="M93.7882 69.0906C93.3867 68.8189 92.84 68.9246 92.5665 69.3251C92.4929 69.4329 90.7269 71.9664 87.4765 71.9664C84.2255 71.9664 82.4553 69.4322 82.3834 69.3272C82.0598 68.8145 81.2457 68.8146 80.9221 69.3272C80.9043 69.3536 79.1096 71.9664 75.829 71.9664C72.578 71.9664 70.8078 69.4322 70.7359 69.3272C70.4124 68.8169 69.6019 68.8166 69.276 69.3251C69.269 69.3353 68.5585 70.3632 67.2478 71.1281C66.8278 71.3734 66.6861 71.9126 66.9313 72.3325C67.1765 72.7523 67.7155 72.894 68.1356 72.6491C68.9444 72.1769 69.5699 71.6281 70.0047 71.1805C70.9883 72.1945 72.9513 73.7274 75.829 73.7274C78.706 73.7274 80.6688 72.1953 81.6526 71.1813C82.6365 72.1953 84.5993 73.7274 87.4762 73.7274C91.6851 73.7274 93.9331 70.4486 94.0267 70.309C94.2972 69.9061 94.1898 69.3623 93.7882 69.0906V69.0906Z" fill="#F7731E"/>
</svg>
