<svg width="186" height="186" viewBox="0 0 186 186" fill="none" xmlns="http://www.w3.org/2000/svg">
<g filter="url(#filter0_d_101_138)">
<rect x="92.9998" y="31" width="65.0541" height="65.0541" rx="8" transform="rotate(45 92.9998 31)" fill="white"/>
</g>
<path d="M77.9833 99.4667H53.25C52.7624 99.4667 52.3667 99.8624 52.3667 100.35V102.117C52.3667 102.604 52.7624 103 53.25 103C53.7376 103 54.1333 102.604 54.1333 102.117V101.233H77.9833C78.4709 101.233 78.8666 100.838 78.8666 100.35C78.8666 99.8625 78.471 99.4667 77.9833 99.4667Z" fill="#F7731E"/>
<path d="M59.4333 72.0833C59.4333 72.5709 59.829 72.9666 60.3166 72.9666H63.85C64.3376 72.9666 64.7333 72.5709 64.7333 72.0833V66.7833C64.7333 66.2958 64.3376 65.9 63.85 65.9H60.3167C59.8291 65.9 59.4334 66.2958 59.4334 66.7833V72.0833H59.4333ZM61.2 67.6667H62.9667V71.2H61.2V67.6667Z" fill="#F7731E"/>
<path d="M51.4833 60.6H40.8833C40.3957 60.6 40 60.9957 40 61.4833V79.15C40 79.6375 40.3957 80.0333 40.8833 80.0333C41.3709 80.0333 41.7666 79.6375 41.7666 79.15V62.3667H51.4833C51.9709 62.3667 52.3666 61.9709 52.3666 61.4834C52.3666 60.9958 51.971 60.6 51.4833 60.6Z" fill="#F7731E"/>
<path d="M82.4 93.2833C82.4 93.7708 82.7958 94.1666 83.2833 94.1666H86.8166C87.3042 94.1666 87.6999 93.7708 87.6999 93.2833V87.9833C87.6999 87.4957 87.3042 87.1 86.8166 87.1H83.2833C82.7958 87.1 82.4 87.4957 82.4 87.9833V93.2833ZM84.1667 88.8667H85.9334V92.4H84.1667V88.8667Z" fill="#F7731E"/>
<path d="M44.4167 81.8C40.0503 81.8 40 93.1685 40 93.2833C40 95.4166 41.5202 97.2001 43.5333 97.6108V102.117C43.5333 102.604 43.929 103 44.4166 103C44.9042 103 45.2999 102.604 45.2999 102.117V97.6108C47.313 97.2001 48.8332 95.4166 48.8332 93.2833C48.8333 93.1685 48.783 81.8 44.4167 81.8ZM44.4167 95.9333C42.9557 95.9333 41.7667 94.7444 41.7667 93.2833C41.7667 88.8826 42.9486 83.5666 44.4167 83.5666C45.8848 83.5666 47.0667 88.8826 47.0667 93.2833C47.0667 94.7444 45.8777 95.9333 44.4167 95.9333Z" fill="#F7731E"/>
<path d="M49.7167 76.5H46.1833C45.6958 76.5 45.3 76.8957 45.3 77.3833V79.15C45.3 79.6376 45.6958 80.0333 46.1833 80.0333C46.6709 80.0333 47.0666 79.6376 47.0666 79.15V78.2667H48.8333V82.6834C48.8333 83.171 49.2291 83.5667 49.7166 83.5667C50.2042 83.5667 50.5999 83.171 50.5999 82.6834V77.3834C50.6 76.8957 50.2043 76.5 49.7167 76.5Z" fill="#F7731E"/>
<path d="M83.2833 72.9667H86.8166C87.3042 72.9667 87.6999 72.571 87.6999 72.0834V66.7834C87.6999 66.2959 87.3042 65.9001 86.8166 65.9001H83.2833C82.7958 65.9001 82.4 66.2959 82.4 66.7834V72.0834C82.4 72.571 82.7958 72.9667 83.2833 72.9667ZM84.1667 67.6667H85.9334V71.2H84.1667V67.6667Z" fill="#F7731E"/>
<path d="M49.7167 65.9H46.1833C45.6958 65.9 45.3 66.2958 45.3 66.7833V72.0833C45.3 72.5709 45.6958 72.9666 46.1833 72.9666H49.7166C50.2042 72.9666 50.5999 72.5709 50.5999 72.0833V66.7833C50.6 66.2958 50.2043 65.9 49.7167 65.9ZM48.8333 71.2H47.0667V67.6667H48.8334V71.2H48.8333Z" fill="#F7731E"/>
<path d="M68.2667 72.0833C68.2667 72.5709 68.6624 72.9666 69.15 72.9666H72.6833C73.1709 72.9666 73.5666 72.5709 73.5666 72.0833V66.7833C73.5666 66.2958 73.1709 65.9 72.6833 65.9H69.15C68.6624 65.9 68.2667 66.2958 68.2667 66.7833V72.0833ZM70.0333 67.6667H71.8V71.2H70.0333V67.6667Z" fill="#F7731E"/>
<path d="M92.1167 60.6H81.5167C81.0291 60.6 80.6334 60.9957 80.6334 61.4833C80.6334 61.9708 81.0291 62.3666 81.5167 62.3666H91.2334V97.8625C90.9561 97.7636 90.6619 97.7 90.3501 97.7C90.1973 97.7 90.0453 97.7133 89.8961 97.7398C89.2866 96.6418 88.1268 95.9333 86.8168 95.9333C85.5068 95.9333 84.347 96.6418 83.7375 97.7398C83.5882 97.7133 83.4363 97.7 83.2835 97.7C81.8225 97.7 80.6335 98.889 80.6335 100.35C80.6335 101.811 81.8225 103 83.2835 103H90.35C91.811 103 93 101.811 93 100.35V61.4833C93 60.9957 92.6043 60.6 92.1167 60.6ZM90.35 101.233H83.2833C82.7966 101.233 82.4 100.837 82.4 100.35C82.4 99.8633 82.7966 99.4667 83.2833 99.4667C83.4528 99.4667 83.6136 99.5153 83.762 99.6107C84.0041 99.7662 84.3062 99.7944 84.573 99.6867C84.8398 99.5789 85.0367 99.3475 85.1012 99.0674C85.2877 98.2627 85.9934 97.7 86.8167 97.7C87.64 97.7 88.3457 98.2627 88.5322 99.0674C88.5966 99.3475 88.7936 99.5789 89.0604 99.6867C89.3263 99.7944 89.6292 99.7662 89.8713 99.6107C90.4464 99.2397 91.2334 99.6937 91.2334 100.35C91.2333 100.837 90.8367 101.233 90.35 101.233Z" fill="#F7731E"/>
<path d="M69.15 62.3666H72.6833C73.1709 62.3666 73.5666 61.9709 73.5666 61.4833V56.1833C73.5666 55.6958 73.1709 55.3 72.6833 55.3H69.15C68.6624 55.3 68.2667 55.6958 68.2667 56.1833V61.4833C68.2667 61.9709 68.6624 62.3666 69.15 62.3666ZM70.0333 57.0666H71.8V60.5999H70.0333V57.0666Z" fill="#F7731E"/>
<path d="M68.2667 82.6833C68.2667 83.1709 68.6624 83.5666 69.15 83.5666H72.6833C73.1709 83.5666 73.5666 83.1709 73.5666 82.6833V77.3833C73.5666 76.8957 73.1709 76.5 72.6833 76.5H69.15C68.6624 76.5 68.2667 76.8957 68.2667 77.3833V82.6833ZM70.0333 78.2667H71.8V81.8H70.0333V78.2667Z" fill="#F7731E"/>
<path d="M60.3167 62.3666H63.85C64.3375 62.3666 64.7333 61.9709 64.7333 61.4833V56.1833C64.7333 55.6958 64.3375 55.3 63.85 55.3H60.3167C59.8291 55.3 59.4334 55.6958 59.4334 56.1833V61.4833C59.4333 61.9709 59.829 62.3666 60.3167 62.3666ZM61.2 57.0666H62.9667V60.5999H61.2V57.0666Z" fill="#F7731E"/>
<path d="M65.8728 92.6562C65.7138 92.824 65.6166 93.0537 65.6166 93.2834C65.6166 93.5131 65.7138 93.7427 65.8728 93.9106C66.0406 94.0696 66.2703 94.1668 66.5 94.1668C66.7297 94.1668 66.9593 94.0696 67.1272 93.9106C67.2862 93.7428 67.3834 93.5131 67.3834 93.2834C67.3834 93.0537 67.2862 92.8241 67.1272 92.6562C66.7915 92.3293 66.2085 92.3293 65.8728 92.6562Z" fill="#F7731E"/>
<path d="M59.4333 82.6833C59.4333 83.1709 59.829 83.5666 60.3166 83.5666H63.85C64.3376 83.5666 64.7333 83.1709 64.7333 82.6833V77.3833C64.7333 76.8957 64.3376 76.5 63.85 76.5H60.3167C59.8291 76.5 59.4334 76.8957 59.4334 77.3833V82.6833H59.4333ZM61.2 78.2667H62.9667V81.8H61.2V78.2667Z" fill="#F7731E"/>
<path d="M57.6667 87.9833C57.6667 88.4708 58.0625 88.8666 58.55 88.8666H61.2V96.8166C61.2 97.3041 61.5958 97.6999 62.0833 97.6999C62.5709 97.6999 62.9666 97.3041 62.9666 96.8166V88.8666H70.0333V96.8166C70.0333 97.3041 70.4291 97.6999 70.9166 97.6999C71.4042 97.6999 71.7999 97.3041 71.7999 96.8166V88.8666H74.4499C74.9375 88.8666 75.3332 88.4708 75.3332 87.9833C75.3332 87.4957 74.9375 87.1 74.4499 87.1H58.55C58.0625 87.1 57.6667 87.4957 57.6667 87.9833Z" fill="#F7731E"/>
<path d="M82.4 82.6833C82.4 83.1709 82.7958 83.5666 83.2833 83.5666H86.8166C87.3042 83.5666 87.6999 83.1709 87.6999 82.6833V77.3833C87.6999 76.8957 87.3042 76.5 86.8166 76.5H83.2833C82.7958 76.5 82.4 76.8957 82.4 77.3833V82.6833ZM84.1667 78.2667H85.9334V81.8H84.1667V78.2667Z" fill="#F7731E"/>
<path d="M77.9833 50H55.0167C54.5291 50 54.1334 50.3957 54.1334 50.8833V96.8166C54.1334 97.3041 54.5291 97.6999 55.0167 97.6999C55.5042 97.6999 55.9 97.3041 55.9 96.8166V51.7666H77.1V96.8166C77.1 97.3041 77.4957 97.6999 77.9833 97.6999C78.4708 97.6999 78.8666 97.3041 78.8666 96.8166V50.8833C78.8667 50.3957 78.4709 50 77.9833 50Z" fill="#F7731E"/>
<defs>
<filter id="filter0_d_101_138" x="0.313354" y="0.313721" width="185.373" height="185.373" filterUnits="userSpaceOnUse" color-interpolation-filters="sRGB">
<feFlood flood-opacity="0" result="BackgroundImageFix"/>
<feColorMatrix in="SourceAlpha" type="matrix" values="0 0 0 0 0 0 0 0 0 0 0 0 0 0 0 0 0 0 127 0" result="hardAlpha"/>
<feOffset dy="16"/>
<feGaussianBlur stdDeviation="25"/>
<feComposite in2="hardAlpha" operator="out"/>
<feColorMatrix type="matrix" values="0 0 0 0 0 0 0 0 0 0 0 0 0 0 0 0 0 0 0.05 0"/>
<feBlend mode="normal" in2="BackgroundImageFix" result="effect1_dropShadow_101_138"/>
<feBlend mode="normal" in="SourceGraphic" in2="effect1_dropShadow_101_138" result="shape"/>
</filter>
</defs>
</svg>
