<svg width="186" height="186" viewBox="0 0 186 186" fill="none" xmlns="http://www.w3.org/2000/svg">
<g filter="url(#filter0_d_101_140)">
<rect x="92.9998" y="31" width="65.0541" height="65.0541" rx="8" transform="rotate(45 92.9998 31)" fill="white"/>
</g>
<path d="M80.625 52.7422V54.5H83.4961V64.7329C82.3417 64.3607 81.5039 63.2766 81.5039 62H79.7461C79.7461 63.5831 78.4581 64.8711 76.875 64.8711V66.6289C78.4581 66.6289 79.7461 67.9169 79.7461 69.5H81.5039C81.5039 68.2234 82.3417 67.1393 83.4961 66.7671V105.242H36.5039V54.5H73.125V52.7422H34.7461V107H85.2539V52.7422H80.625ZM80.625 66.7911C80.3354 66.3913 79.9837 66.0396 79.5839 65.75C79.9837 65.4604 80.3354 65.1087 80.625 64.7089C80.9146 65.1087 81.2663 65.4604 81.6661 65.75C81.2663 66.0396 80.9146 66.3913 80.625 66.7911Z" fill="#F7731E"/>
<path d="M38.4961 56.4922V77H40.2539V58.25H57.2461V101.492H40.2539V84.5H38.4961V103.25H59.0039V56.4922H38.4961Z" fill="#F7731E"/>
<path d="M60.9961 56.4922V98.6211H62.7539V58.25H80.625V56.4922H60.9961Z" fill="#F7731E"/>
<path d="M79.7461 73.25V101.492H61.875V103.25H81.5039V73.25H79.7461Z" fill="#F7731E"/>
<path d="M46.2532 60.4995L42.5028 64.2499L43.7458 65.4929L47.4962 61.7425L46.2532 60.4995Z" fill="#F7731E"/>
<path d="M50.0034 60.5001L42.5035 67.9999L43.7465 69.2429L51.2463 61.743L50.0034 60.5001Z" fill="#F7731E"/>
<path d="M68.753 60.4993L65.0026 64.2497L66.2455 65.4926L69.9959 61.7423L68.753 60.4993Z" fill="#F7731E"/>
<path d="M72.5029 60.5L65.003 67.9999L66.2459 69.2428L73.7458 61.743L72.5029 60.5Z" fill="#F7731E"/>
<path d="M44.0039 77H42.2461C42.2461 78.5831 40.9581 79.8711 39.375 79.8711V81.6289C40.9581 81.6289 42.2461 82.9169 42.2461 84.5H44.0039C44.0039 82.9169 45.2919 81.6289 46.875 81.6289V79.8711C45.2919 79.8711 44.0039 78.5831 44.0039 77ZM43.125 81.7911C42.8354 81.3913 42.4837 81.0396 42.0839 80.75C42.4837 80.4604 42.8354 80.1087 43.125 79.7089C43.4146 80.1087 43.7663 80.4604 44.1661 80.75C43.7663 81.0396 43.4146 81.3913 43.125 81.7911Z" fill="#F7731E"/>
<path d="M77.7539 47H75.9961C75.9961 48.5831 74.7081 49.8711 73.125 49.8711V51.6289C74.7081 51.6289 75.9961 52.9169 75.9961 54.5H77.7539C77.7539 52.9169 79.0419 51.6289 80.625 51.6289V49.8711C79.0419 49.8711 77.7539 48.5831 77.7539 47ZM76.875 51.7911C76.5854 51.3912 76.2337 51.0396 75.8339 50.75C76.2337 50.4604 76.5854 50.1087 76.875 49.7089C77.1646 50.1087 77.5163 50.4604 77.9161 50.75C77.5163 51.0396 77.1646 51.3912 76.875 51.7911Z" fill="#F7731E"/>
<path d="M76.875 78.9922H75V80.75H76.875V78.9922Z" fill="#F7731E"/>
<path d="M72.1875 78.9922H70.3125V80.75H72.1875V78.9922Z" fill="#F7731E"/>
<path d="M67.5 78.9922H65.625V80.75H67.5V78.9922Z" fill="#F7731E"/>
<defs>
<filter id="filter0_d_101_140" x="0.313354" y="0.313721" width="185.373" height="185.373" filterUnits="userSpaceOnUse" color-interpolation-filters="sRGB">
<feFlood flood-opacity="0" result="BackgroundImageFix"/>
<feColorMatrix in="SourceAlpha" type="matrix" values="0 0 0 0 0 0 0 0 0 0 0 0 0 0 0 0 0 0 127 0" result="hardAlpha"/>
<feOffset dy="16"/>
<feGaussianBlur stdDeviation="25"/>
<feComposite in2="hardAlpha" operator="out"/>
<feColorMatrix type="matrix" values="0 0 0 0 0 0 0 0 0 0 0 0 0 0 0 0 0 0 0.05 0"/>
<feBlend mode="normal" in2="BackgroundImageFix" result="effect1_dropShadow_101_140"/>
<feBlend mode="normal" in="SourceGraphic" in2="effect1_dropShadow_101_140" result="shape"/>
</filter>
</defs>
</svg>
