<svg width="186" height="186" viewBox="0 0 186 186" fill="none" xmlns="http://www.w3.org/2000/svg">
<g filter="url(#filter0_d_101_133)">
<rect x="92.9998" y="31" width="65.0541" height="65.0541" rx="8" transform="rotate(45 92.9998 31)" fill="white"/>
</g>
<g clip-path="url(#clip0_101_133)">
<path d="M87.0114 87.6969C86.7262 87.5786 86.3979 87.6439 86.1796 87.8622L77.8386 96.2031C77.6204 96.4215 77.5551 96.7498 77.6733 97.0349C77.7913 97.3202 78.0698 97.5061 78.3784 97.5061H86.7194C87.141 97.5061 87.4826 97.1644 87.4826 96.7428V88.4019C87.4825 88.0933 87.2965 87.815 87.0114 87.6969ZM80.2208 95.9797L85.9559 90.2446V95.9797H80.2208Z" fill="#F7731E"/>
<path d="M92.529 75.4631C92.2438 75.3449 91.9155 75.4102 91.6972 75.6284L89.4113 77.9143V62.372C89.4113 61.9505 89.0695 61.6088 88.648 61.6088H82.7837L84.9125 59.48C84.9128 59.4797 84.9131 59.4793 84.9134 59.479L86.9645 57.4279C87.404 56.9884 87.646 56.4038 87.646 55.7823C87.646 55.1607 87.404 54.5763 86.9645 54.1366L84.5926 51.7647C84.1532 51.3253 83.5686 51.0833 82.947 51.0833C82.3255 51.0833 81.741 51.3253 81.3014 51.7647L79.2492 53.8169L76.7695 56.2967L71.4574 61.6087H47.7661V54.058C47.7661 53.6364 47.4243 53.2948 47.0029 53.2948C43.6929 53.295 41 55.9877 41 59.2978V91.7152C41 91.7716 41.0065 91.8264 41.0181 91.8793C41.1235 93.2838 41.7311 94.5887 42.7467 95.5794C43.8322 96.6381 45.2651 97.2212 46.7817 97.2212H70.1043L65.7118 101.614C65.4936 101.832 65.4283 102.16 65.5464 102.445C65.6645 102.731 65.9429 102.917 66.2515 102.917H92.2369C92.6583 102.917 93.0001 102.575 93.0001 102.153V76.1682C93.0001 75.8596 92.814 75.5812 92.529 75.4631ZM82.381 52.8442C82.693 52.532 83.2013 52.532 83.5133 52.8442L85.8853 55.2162C86.1975 55.5283 86.1975 56.0365 85.8853 56.3487L84.373 57.8611L80.8684 54.3567L82.381 52.8442ZM79.789 55.4361L83.2935 58.9404L81.893 60.3409L78.3888 56.8366L79.789 55.4361ZM91.4738 84.7444H90.0657C89.6441 84.7444 89.3024 85.086 89.3024 85.5076C89.3024 85.9292 89.6441 86.2709 90.0657 86.2709H91.4738V88.5709H90.0657C89.6441 88.5709 89.3024 88.9125 89.3024 89.3341C89.3024 89.7557 89.6441 90.0973 90.0657 90.0973H91.4738V92.3972H90.0657C89.6441 92.3972 89.3024 92.7389 89.3024 93.1605C89.3024 93.5821 89.6441 93.9237 90.0657 93.9237H91.4738V96.2237H90.0657C89.6441 96.2237 89.3024 96.5655 89.3024 96.9869C89.3024 97.4085 89.6441 97.7502 90.0657 97.7502H91.4738V101.39H68.0941L75.8035 93.6811C76.1016 93.3829 76.1016 92.8998 75.8035 92.6017C75.7693 92.5674 75.7325 92.5378 75.694 92.5114C75.3969 92.3079 74.988 92.3378 74.724 92.6017L71.6308 95.6949H46.7818C44.4669 95.6949 42.6035 93.8877 42.5301 91.577C42.5345 91.432 42.5458 91.2882 42.5639 91.146C42.564 91.1452 42.5641 91.1444 42.5642 91.1435C42.5727 91.076 42.583 91.0088 42.5946 90.9419C42.596 90.9343 42.5974 90.9267 42.5987 90.9191C42.6094 90.8595 42.6213 90.8002 42.6344 90.741C42.6381 90.7246 42.642 90.7081 42.6458 90.6918C42.6574 90.6418 42.6699 90.5922 42.6833 90.5427C42.6906 90.5159 42.6982 90.4894 42.7061 90.4627C42.7172 90.4239 42.7288 90.3852 42.7411 90.3469C42.7534 90.3086 42.7665 90.2707 42.7798 90.2328C42.789 90.2063 42.7982 90.1798 42.8081 90.1535C42.8267 90.1035 42.8464 90.0541 42.8667 90.005C42.8725 89.9909 42.8782 89.9766 42.8842 89.9625C42.9103 89.9015 42.9374 89.8413 42.9661 89.7818C42.9673 89.7792 42.9684 89.7767 42.9696 89.7742C43.5666 88.5388 44.7148 87.6177 46.0927 87.3319C46.0965 87.3311 46.1004 87.3302 46.1042 87.3294C46.1674 87.3165 46.2312 87.3054 46.2954 87.2951C46.306 87.2934 46.3167 87.2913 46.3276 87.2896C46.3856 87.2808 46.4442 87.2739 46.5028 87.2673C46.5192 87.2655 46.5356 87.2629 46.5521 87.2613C46.6087 87.2556 46.6658 87.2519 46.7229 87.2483C46.7409 87.2472 46.759 87.2453 46.7771 87.2443C46.8518 87.2406 46.9272 87.2387 47.0029 87.2387C47.4243 87.2387 47.7661 86.897 47.7661 86.4754V80.9414C47.7661 80.5198 47.4243 80.1781 47.0029 80.1781C46.5814 80.1781 46.2396 80.5198 46.2396 80.9414V85.7602C44.9508 85.9232 43.7545 86.4981 42.8112 87.4192C42.7119 87.5161 42.6179 87.6169 42.5263 87.7192V59.2978C42.5263 57.0898 44.1336 55.2498 46.2395 54.8864V62.372V77.8885V77.8886C46.2395 78.3101 46.5813 78.6518 47.0028 78.6518C47.4242 78.6518 47.766 78.3101 47.766 77.8886V77.8885V63.1353H69.9311L65.7117 67.3546C65.4136 67.6528 65.4136 68.1359 65.7117 68.434C66.0098 68.732 66.4931 68.732 66.791 68.434L72.3133 62.9118C72.3135 62.9115 72.3136 62.9113 72.3138 62.9112L77.3092 57.9159L80.8134 61.4203L80.4023 61.8314C80.402 61.8317 80.4016 61.832 80.4013 61.8323L65.0117 77.2221L61.5073 73.7178L64.5408 70.6843C64.8389 70.3862 64.8389 69.903 64.5408 69.6049C64.2427 69.3069 63.7595 69.3069 63.4615 69.6049L59.8882 73.1781C59.8691 73.1972 59.8513 73.2174 59.8345 73.2381C59.8289 73.245 59.8239 73.2525 59.8187 73.2597C59.8079 73.274 59.7973 73.2884 59.7875 73.3034C59.7819 73.3122 59.7768 73.3211 59.7715 73.3302C59.7631 73.3444 59.755 73.3588 59.7476 73.3735C59.7427 73.3831 59.7383 73.3927 59.7339 73.4027C59.727 73.4176 59.7207 73.4328 59.715 73.4481C59.7129 73.4534 59.7103 73.4585 59.7084 73.4639L58.2214 77.6762L57.2076 80.5483C57.1942 80.5865 57.1845 80.6253 57.1773 80.6644H54.6391C54.2176 80.6644 53.8758 81.0061 53.8758 81.4276C53.8758 81.8492 54.2176 82.1909 54.6391 82.1909H75.7757C76.1973 82.1909 76.5389 81.8492 76.5389 81.4276C76.5389 81.0061 76.1973 80.6644 75.7757 80.6644H60.611L65.2657 79.0213C65.2695 79.0199 65.2732 79.018 65.277 79.0165C65.2951 79.0098 65.3129 79.0023 65.3305 78.9943C65.3375 78.9911 65.3445 78.988 65.3513 78.9847C65.3696 78.9755 65.3875 78.9655 65.4052 78.9547C65.4109 78.9512 65.4168 78.9481 65.4224 78.9445C65.4408 78.9328 65.4586 78.9199 65.4762 78.9062C65.4806 78.9029 65.4851 78.9 65.4894 78.8965C65.5106 78.8794 65.5315 78.8611 65.5512 78.8414L81.2572 63.1354H87.8847V79.4409L76.9671 90.3586C76.669 90.6567 76.669 91.1399 76.9671 91.438C76.9857 91.4566 77.0051 91.474 77.0251 91.4904C77.1651 91.6044 77.336 91.6615 77.5068 91.6615C77.6776 91.6615 77.8487 91.6044 77.9885 91.4904C78.0085 91.4741 78.0279 91.4566 78.0465 91.438C78.0468 91.4377 78.0465 91.438 78.0468 91.4377L91.4738 78.0106V84.7444ZM63.6157 77.9848L61.4294 78.7565L59.9728 77.2999L60.7446 75.1137L63.6157 77.9848Z" fill="#F7731E"/>
</g>
<defs>
<filter id="filter0_d_101_133" x="0.313339" y="0.313721" width="185.373" height="185.373" filterUnits="userSpaceOnUse" color-interpolation-filters="sRGB">
<feFlood flood-opacity="0" result="BackgroundImageFix"/>
<feColorMatrix in="SourceAlpha" type="matrix" values="0 0 0 0 0 0 0 0 0 0 0 0 0 0 0 0 0 0 127 0" result="hardAlpha"/>
<feOffset dy="16"/>
<feGaussianBlur stdDeviation="25"/>
<feComposite in2="hardAlpha" operator="out"/>
<feColorMatrix type="matrix" values="0 0 0 0 0 0 0 0 0 0 0 0 0 0 0 0 0 0 0.05 0"/>
<feBlend mode="normal" in2="BackgroundImageFix" result="effect1_dropShadow_101_133"/>
<feBlend mode="normal" in="SourceGraphic" in2="effect1_dropShadow_101_133" result="shape"/>
</filter>
<clipPath id="clip0_101_133">
<rect width="52" height="52" fill="white" transform="translate(41 51)"/>
</clipPath>
</defs>
</svg>
