<svg width="186" height="186" viewBox="0 0 186 186" fill="none" xmlns="http://www.w3.org/2000/svg">
<g filter="url(#filter0_d_101_134)">
<rect x="93.0002" y="31" width="65.0541" height="65.0541" rx="8" transform="rotate(45 93.0002 31)" fill="white"/>
</g>
<g clip-path="url(#clip0_101_134)">
<path d="M144.133 91.7335C144.612 91.7335 145 91.3454 145 90.8669C145 90.3882 144.612 90.0003 144.133 90.0003H143.266C143.266 89.5216 142.878 89.1336 142.4 89.1336C141.921 89.1336 141.533 89.5216 141.533 90.0003H127.667C127.667 89.5216 127.279 89.1336 126.8 89.1336C126.321 89.1336 125.933 89.5216 125.933 90.0003H125.067C124.588 90.0003 124.2 90.3883 124.2 90.8669C124.2 91.3455 124.588 91.7335 125.067 91.7335H125.933V94.3335H125.067C124.588 94.3335 124.2 94.7214 124.2 95.2001C124.2 95.6787 124.588 96.0667 125.067 96.0667H125.933V96.9333H125.067C124.588 96.9333 124.2 97.3214 124.2 97.7999C124.2 98.2785 124.588 98.6665 125.067 98.6665H125.933V101.266H111.2V94.0963C112.482 94.8187 113.929 95.1989 115.4 95.2C120.322 95.1291 124.258 91.0888 124.2 86.167C124.227 82.7451 122.316 79.6023 119.265 78.0514C120.27 76.6842 120.808 75.0303 120.8 73.3339C120.83 69.5901 118.204 66.3495 114.535 65.6034C115.464 63.5562 115.304 61.1799 114.11 59.2752C112.916 57.3704 110.847 56.1908 108.6 56.1338C108.575 56.1338 108.55 56.1375 108.524 56.1378C108.063 53.1553 105.478 50.966 102.461 51.0011C99.4428 51.0363 96.9101 53.2853 96.5183 56.2777C94.3238 56.6984 92.8088 58.7189 93.02 60.9434C93.2311 63.168 95.0992 64.8672 97.3339 64.8673H102.386C102.464 65.1166 102.557 65.361 102.663 65.5994C98.9945 66.348 96.3695 69.5898 96.4003 73.334C96.3929 75.0304 96.931 76.6843 97.9351 78.0515C94.8847 79.6025 92.9739 82.7452 93.0006 86.1671C92.9427 91.0888 96.8788 95.1292 101.8 95.2001C103.272 95.199 104.718 94.8189 106 94.0964V101.267H93.8673C93.3886 101.267 93.0007 101.655 93.0007 102.133C93.0007 102.612 93.3886 103 93.8673 103H144.133C144.612 103 145 102.612 145 102.133C145 101.655 144.612 101.267 144.133 101.267H143.266V98.6666H144.133C144.612 98.6666 145 98.2787 145 97.8C145 97.3214 144.612 96.9334 144.133 96.9334H143.266V96.0668H144.133C144.612 96.0668 145 95.6788 145 95.2002C145 94.7215 144.612 94.3336 144.133 94.3336H143.266V91.7336H144.133V91.7335ZM102.067 62.8344C102.067 62.935 102.078 63.034 102.083 63.134H97.3339C95.898 63.134 94.7339 61.97 94.7339 60.534C94.7339 59.0981 95.898 57.9341 97.3339 57.9341C97.5637 57.9342 97.7842 57.8429 97.9468 57.6803C98.1093 57.5178 98.2006 57.2973 98.2006 57.0674C98.1961 54.8056 99.9351 52.9225 102.19 52.7472C104.445 52.5718 106.454 54.1635 106.8 56.3988C103.973 57.2622 102.049 59.879 102.067 62.8344ZM109.467 101.267H107.734V92.8224C108.044 92.5332 108.334 92.2222 108.6 91.8918C108.867 92.2222 109.156 92.5332 109.467 92.8223V101.267H109.467ZM109.572 90.2539L115.28 84.5464C115.613 84.207 115.61 83.6627 115.274 83.3264C114.938 82.9901 114.394 82.9877 114.054 83.3209L109.467 87.908V79.0925L113.546 75.0133C113.881 74.6742 113.879 74.1286 113.542 73.7916C113.206 73.4547 112.66 73.453 112.321 73.7877L109.467 76.6416V72.6672C109.467 72.1885 109.079 71.8006 108.6 71.8006C108.122 71.8006 107.734 72.1886 107.734 72.6672V76.6416L104.88 73.7877C104.541 73.453 103.995 73.4547 103.658 73.7916C103.321 74.1285 103.32 74.6741 103.654 75.0133L107.734 79.0926V87.9081L103.146 83.3209C102.807 82.9862 102.262 82.9879 101.925 83.3248C101.588 83.6617 101.586 84.2074 101.921 84.5465L107.628 90.2539C106.359 92.2474 104.163 93.4581 101.8 93.4668C97.8355 93.3971 94.6748 90.1321 94.7337 86.1672C94.6969 83.0317 96.6788 80.2274 99.6467 79.2153C99.9336 79.1208 100.151 78.8836 100.219 78.5894C100.288 78.2952 100.198 77.9865 99.9828 77.7748C98.7915 76.6053 98.1244 75.0034 98.1336 73.334C98.0769 70.0271 100.692 67.2905 103.998 67.1972C104.356 67.2288 104.698 67.0436 104.867 66.7266C105.015 66.4353 104.986 66.0857 104.792 65.8227C104.15 64.9586 103.802 63.911 103.8 62.8343C103.758 60.1387 105.905 57.9171 108.6 57.8672C111.296 57.9171 113.443 60.1387 113.4 62.8343C113.398 63.911 113.051 64.9586 112.408 65.8227C112.219 66.0879 112.195 66.4374 112.347 66.7258C112.5 67.0184 112.803 67.2014 113.134 67.2006C116.464 67.2605 119.117 70.0038 119.067 73.334C119.076 75.0034 118.409 76.6053 117.218 77.7748C117.002 77.9865 116.913 78.2952 116.981 78.5894C117.05 78.8836 117.267 79.1208 117.554 79.2153C120.882 80.3792 122.911 83.7472 122.384 87.2338C121.858 90.7203 118.924 93.3385 115.4 93.4668C113.037 93.4581 110.841 92.2474 109.572 90.2539ZM141.533 101.267H127.667V98.6667H141.533V101.267ZM141.533 96.9334H127.667V96.0668H141.533V96.9334ZM141.533 94.3335H127.667V91.7335H141.533V94.3335Z" fill="#F7731E"/>
<path d="M130.267 72.6667H140.667C142.901 72.6666 144.769 70.9674 144.98 68.7428C145.192 66.5183 143.677 64.4978 141.482 64.0772C141.085 61.0578 138.512 58.8004 135.467 58.8004C132.421 58.8004 129.848 61.0578 129.451 64.0772C127.257 64.4978 125.742 66.5183 125.953 68.7428C126.164 70.9674 128.032 72.6666 130.267 72.6667ZM130.267 65.7335C130.497 65.7336 130.717 65.6423 130.88 65.4797C131.042 65.3172 131.133 65.0967 131.133 64.8668C131.133 62.4736 133.074 60.5335 135.467 60.5335C137.86 60.5335 139.8 62.4735 139.8 64.8668C139.8 65.0966 139.891 65.3171 140.054 65.4797C140.216 65.6422 140.437 65.7335 140.667 65.7335C142.103 65.7335 143.267 66.8976 143.267 68.3335C143.267 69.7693 142.103 70.9334 140.667 70.9334H130.267C128.831 70.9334 127.667 69.7694 127.667 68.3335C127.667 66.8975 128.831 65.7335 130.267 65.7335Z" fill="#F7731E"/>
</g>
<defs>
<filter id="filter0_d_101_134" x="0.313721" y="0.313721" width="185.373" height="185.373" filterUnits="userSpaceOnUse" color-interpolation-filters="sRGB">
<feFlood flood-opacity="0" result="BackgroundImageFix"/>
<feColorMatrix in="SourceAlpha" type="matrix" values="0 0 0 0 0 0 0 0 0 0 0 0 0 0 0 0 0 0 127 0" result="hardAlpha"/>
<feOffset dy="16"/>
<feGaussianBlur stdDeviation="25"/>
<feComposite in2="hardAlpha" operator="out"/>
<feColorMatrix type="matrix" values="0 0 0 0 0 0 0 0 0 0 0 0 0 0 0 0 0 0 0.05 0"/>
<feBlend mode="normal" in2="BackgroundImageFix" result="effect1_dropShadow_101_134"/>
<feBlend mode="normal" in="SourceGraphic" in2="effect1_dropShadow_101_134" result="shape"/>
</filter>
<clipPath id="clip0_101_134">
<rect width="52" height="52" fill="white" transform="translate(93 51)"/>
</clipPath>
</defs>
</svg>
