<svg width="186" height="186" viewBox="0 0 186 186" fill="none" xmlns="http://www.w3.org/2000/svg">
<g filter="url(#filter0_d_101_132)">
<rect x="93.0002" y="31" width="65.0541" height="65.0541" rx="8" transform="rotate(45 93.0002 31)" fill="white"/>
</g>
<g clip-path="url(#clip0_101_132)">
<path d="M136.267 73.375L133.335 71.0297C133.324 71.0203 133.312 71.0086 133.3 70.9992L136.029 70.4531C136.394 70.3805 136.657 70.0602 136.657 69.6875V67.3438C136.657 66.9125 136.307 66.5625 135.875 66.5625H131.969C131.538 66.5625 131.188 66.9125 131.188 67.3438V68.7125C131.17 68.6883 131.152 68.6641 131.134 68.6398C131.085 68.5039 130.997 68.393 130.886 68.3047C130.446 67.682 130.07 67.0586 129.825 66.5195L128.504 63.6156C127.663 61.7633 125.41 60.3125 123.375 60.3125H104.625C102.591 60.3125 100.338 61.7633 99.4964 63.6156L98.1769 66.5188C97.9316 67.0578 97.555 67.682 97.1151 68.3047C97.0042 68.393 96.9175 68.5039 96.8675 68.6398C96.8495 68.6641 96.8323 68.6875 96.8136 68.7125V67.3438C96.8136 66.9125 96.4636 66.5625 96.0323 66.5625H92.1253C91.6941 66.5625 91.3441 66.9125 91.3441 67.3438V69.6875C91.3441 70.0602 91.6066 70.3805 91.9722 70.4531L94.7011 70.9992C94.6894 71.0086 94.6776 71.0203 94.6659 71.0297L91.7339 73.375C90.2011 74.6016 89.0003 77.1 89.0003 79.0625V92.3438C89.0003 93.6359 90.0519 94.6875 91.3441 94.6875H97.5941C98.8862 94.6875 99.9378 93.6359 99.9378 92.3438V90.7812H128.063V92.3438C128.063 93.6359 129.114 94.6875 130.407 94.6875H136.657C137.949 94.6875 139 93.6359 139 92.3438V79.0625C139 77.1 137.8 74.6016 136.267 73.375ZM129.167 89.2188L127.376 87.4273C126.616 86.6672 125.232 86.0938 124.157 86.0938H103.453C102.378 86.0938 100.994 86.6672 100.234 87.4273L98.4425 89.2188H92.9066C91.6144 89.2188 90.5628 88.1672 90.5628 86.875V82.9688H91.3441V83.75C91.3441 85.4734 92.7456 86.875 94.4691 86.875H96.8128C97.2441 86.875 97.5941 86.525 97.5941 86.0938C97.5941 85.6625 97.2441 85.3125 96.8128 85.3125H94.4691C93.6073 85.3125 92.9066 84.6117 92.9066 83.75V82.9688H94.4691C95.1175 82.9688 96.1253 83.3859 96.5839 83.8445C96.7362 83.9969 96.9362 84.0734 97.1362 84.0734C97.3362 84.0734 97.5362 83.9969 97.6886 83.8445C97.9941 83.5391 97.9941 83.0453 97.6886 82.7398C96.9284 81.9797 95.5448 81.4062 94.4691 81.4062H90.5628V79.0625C90.5628 78.7867 90.6066 78.4891 90.6683 78.1852C91.1683 78.707 91.8956 79.0625 92.9066 79.0625H99.1566C99.3636 79.0625 99.562 78.9805 99.7089 78.8336L100.719 77.8234L101.729 78.8336C101.875 78.9805 102.075 79.0625 102.282 79.0625H111.333L113.448 81.1773C113.6 81.3297 113.8 81.4062 114 81.4062C114.2 81.4062 114.4 81.3297 114.553 81.1773L116.667 79.0625H125.719C125.926 79.0625 126.125 78.9805 126.271 78.8336L127.282 77.8234L128.292 78.8336C128.438 78.9805 128.637 79.0625 128.844 79.0625H135.094C136.105 79.0625 136.832 78.707 137.332 78.1852C137.394 78.4891 137.438 78.7867 137.438 79.0625V81.4062H133.532C132.457 81.4062 131.072 81.9797 130.312 82.7398C130.007 83.0453 130.007 83.5391 130.312 83.8445C130.464 83.9969 130.664 84.0734 130.864 84.0734C131.064 84.0734 131.264 83.9969 131.417 83.8445C131.875 83.3859 132.883 82.9688 133.532 82.9688H135.094V83.75C135.094 84.6117 134.393 85.3125 133.532 85.3125H131.188C130.757 85.3125 130.407 85.6625 130.407 86.0938C130.407 86.525 130.757 86.875 131.188 86.875H133.532C135.255 86.875 136.657 85.4734 136.657 83.75V82.9688H137.438V86.875C137.438 88.1672 136.386 89.2188 135.094 89.2188H129.167ZM126.958 89.2188H100.652L101.339 88.532C101.797 88.0734 102.805 87.6562 103.453 87.6562H124.157C124.805 87.6562 125.813 88.0734 126.271 88.532L126.958 89.2188ZM98.0316 69.6875H129.969C130.726 70.6883 131.591 71.6352 132.359 72.25L133.299 73.0016L127.773 75.2117C127.772 75.2117 127.772 75.2125 127.771 75.2125C127.677 75.2508 127.588 75.3078 127.511 75.3844L126.73 76.1656L125.396 77.5H116.344C116.137 77.5 115.938 77.582 115.792 77.7289L114 79.5203L112.209 77.7289C112.063 77.582 111.864 77.5 111.657 77.5H102.605L101.271 76.1664L100.49 75.3852C100.414 75.3086 100.325 75.2516 100.23 75.2133C100.229 75.2133 100.229 75.2125 100.228 75.2125L94.7026 73.0023L95.6425 72.2508C96.4097 71.6352 97.2745 70.6883 98.0316 69.6875ZM136.61 76.2648C136.453 77.0813 135.947 77.5 135.094 77.5H129.167L128.386 76.7188L128.502 76.6031L134.701 74.1234L135.29 74.5953C135.785 74.9914 136.242 75.5938 136.61 76.2648ZM132.75 68.125H135.094V69.0469L132.75 69.5156V68.125ZM99.598 67.1656L100.917 64.2625C101.507 62.968 103.204 61.875 104.625 61.875H123.375C124.796 61.875 126.494 62.968 127.082 64.2617L128.403 67.1656C128.54 67.4672 128.719 67.793 128.915 68.125H99.0855C99.2816 67.793 99.4612 67.4672 99.598 67.1656ZM92.9066 68.125H95.2503V69.5156L92.9066 69.0469V68.125ZM92.7097 74.5953L93.2987 74.1234L99.4987 76.6031L99.6144 76.7188L98.8331 77.5H92.9066C92.0534 77.5 91.5472 77.0813 91.3901 76.2648C91.7581 75.5938 92.2144 74.9914 92.7097 74.5953ZM97.5941 93.125H91.3441C90.9136 93.125 90.5628 92.7742 90.5628 92.3438V89.9805C91.2175 90.4758 92.0237 90.7812 92.9066 90.7812H98.3753V92.3438C98.3753 92.7742 98.0245 93.125 97.5941 93.125ZM136.657 93.125H130.407C129.976 93.125 129.625 92.7742 129.625 92.3438V90.7812H135.094C135.977 90.7812 136.783 90.4758 137.438 89.9805V92.3438C137.438 92.7742 137.087 93.125 136.657 93.125Z" fill="#F7731E"/>
</g>
<defs>
<filter id="filter0_d_101_132" x="0.313705" y="0.313721" width="185.373" height="185.373" filterUnits="userSpaceOnUse" color-interpolation-filters="sRGB">
<feFlood flood-opacity="0" result="BackgroundImageFix"/>
<feColorMatrix in="SourceAlpha" type="matrix" values="0 0 0 0 0 0 0 0 0 0 0 0 0 0 0 0 0 0 127 0" result="hardAlpha"/>
<feOffset dy="16"/>
<feGaussianBlur stdDeviation="25"/>
<feComposite in2="hardAlpha" operator="out"/>
<feColorMatrix type="matrix" values="0 0 0 0 0 0 0 0 0 0 0 0 0 0 0 0 0 0 0.05 0"/>
<feBlend mode="normal" in2="BackgroundImageFix" result="effect1_dropShadow_101_132"/>
<feBlend mode="normal" in="SourceGraphic" in2="effect1_dropShadow_101_132" result="shape"/>
</filter>
<clipPath id="clip0_101_132">
<rect width="50" height="50" fill="white" transform="translate(89.0003 52.5)"/>
</clipPath>
</defs>
</svg>
