<svg width="186" height="186" viewBox="0 0 186 186" fill="none" xmlns="http://www.w3.org/2000/svg">
<g filter="url(#filter0_d_101_139)">
<rect x="93.0002" y="31" width="65.0541" height="65.0541" rx="8" transform="rotate(45 93.0002 31)" fill="white"/>
</g>
<g clip-path="url(#clip0_101_139)">
<path d="M156.587 85.8812C156.159 85.5908 155.575 85.703 155.283 86.13C155.205 86.2451 153.316 88.9487 149.848 88.9487C146.379 88.9487 144.491 86.2451 144.414 86.1331C144.069 85.5857 143.2 85.5863 142.855 86.1338C142.836 86.162 140.926 88.9488 137.426 88.9488C134.493 88.9488 132.69 87.0156 132.157 86.351V71.7951H156.061C156.58 71.7951 157 71.3746 157 70.8557C157 70.3368 156.58 69.9163 156.061 69.9163H148.507V63.0701C148.507 56.8591 143.514 51.7578 137.376 51.6985C134.357 51.6681 131.51 52.8258 129.36 54.955C128.319 55.9858 127.507 57.1831 126.943 58.4855C125.207 54.5313 121.302 51.7423 116.774 51.6985C116.736 51.6981 116.699 51.698 116.662 51.698C113.684 51.698 110.88 52.8521 108.757 54.955C106.607 57.0846 105.422 59.92 105.422 62.9387V69.9165H94.0105C93.4916 69.9165 93.0711 70.337 93.0711 70.8558C93.0711 71.3747 93.4916 71.7952 94.0105 71.7952H105.422V75.5047C105.422 76.0236 105.843 76.4441 106.362 76.4441C106.881 76.4441 107.301 76.0236 107.301 75.5047V62.9387C107.301 60.4251 108.288 58.0638 110.079 56.2897C111.87 54.5162 114.239 53.5472 116.756 53.5771C121.867 53.6265 126.025 57.8851 126.025 63.0701V69.9163H123.651V62.9387C123.651 59.1512 120.571 56.017 116.785 55.9521C116.745 55.9515 116.705 55.9511 116.665 55.9511C114.852 55.9511 113.134 56.6602 111.817 57.9556C110.456 59.2932 109.675 61.1486 109.675 63.046V88.2575C108.423 87.6286 107.621 86.7407 107.301 86.3402V79.262C107.301 78.7431 106.88 78.3226 106.362 78.3226C105.843 78.3226 105.422 78.7431 105.422 79.262V86.3497C104.887 87.0168 103.084 88.9487 100.152 88.9487C96.684 88.9487 94.7955 86.2451 94.7187 86.1331C94.4292 85.7026 93.8456 85.5883 93.4151 85.8777C92.9846 86.1671 92.8702 86.7507 93.1597 87.1813C93.2597 87.3302 95.6627 90.8275 100.152 90.8275C103.222 90.8275 105.316 89.193 106.365 88.1112C107.415 89.193 109.509 90.8275 112.578 90.8275C115.647 90.8275 117.739 89.1938 118.787 88.1117C119.837 89.1936 121.931 90.8275 125 90.8275C128.069 90.8275 130.163 89.193 131.213 88.1112C132.262 89.193 134.356 90.8275 137.426 90.8275C140.494 90.8275 142.586 89.1938 143.635 88.1117C144.685 89.1936 146.778 90.8275 149.847 90.8275C154.337 90.8275 156.74 87.3302 156.84 87.1813C157.129 86.752 157.015 86.1716 156.587 85.8812ZM111.554 78.3227H126.025V80.9527H111.554V78.3227ZM126.025 76.444H111.554V71.7951H126.025V76.444ZM113.134 59.2955C114.118 58.3277 115.403 57.8076 116.752 57.8306C119.52 57.8781 121.772 60.1696 121.772 62.9388V69.9166H111.554V63.0461C111.554 61.6491 112.13 60.2821 113.134 59.2955ZM119.567 86.1331C119.221 85.5887 118.357 85.5883 118.009 86.1308C117.931 86.2458 116.046 88.9487 112.579 88.9487C112.22 88.9487 111.879 88.9185 111.554 88.8665V82.8313H126.025V88.8663C125.7 88.9183 125.359 88.9487 125 88.9487C121.532 88.9487 119.643 86.2451 119.567 86.1331ZM127.904 88.2571V62.9387C127.904 60.4251 128.89 58.0638 130.682 56.2897C132.473 54.5162 134.842 53.5472 137.358 53.5771C142.47 53.6265 146.628 57.8851 146.628 63.0701V69.9163H144.254V67.8282C144.254 67.3093 143.833 66.8888 143.314 66.8888C142.795 66.8888 142.375 67.3093 142.375 67.8282V69.9163H132.157V63.0458C132.157 61.649 132.733 60.282 133.736 59.2952C134.721 58.3275 136.003 57.8073 137.355 57.8303C140.123 57.8778 142.375 60.1693 142.375 62.9386V64.0708C142.375 64.5897 142.795 65.0102 143.314 65.0102C143.833 65.0102 144.254 64.5897 144.254 64.0708V62.9386C144.254 59.1511 141.173 56.0168 137.387 55.952C137.347 55.9513 137.308 55.951 137.268 55.951C135.455 55.951 133.737 56.6601 132.419 57.9555C131.059 59.2931 130.278 61.1485 130.278 63.0458V86.339C129.958 86.7411 129.155 87.6286 127.904 88.2571Z" fill="#F7731E"/>
<path d="M118.792 100.423C115.323 100.423 113.435 97.7197 113.358 97.6077C113.013 97.0636 112.149 97.0631 111.801 97.6047C111.722 97.7198 109.834 100.423 106.366 100.423C102.897 100.423 101.009 97.7198 100.932 97.6078C100.642 97.1772 100.059 97.063 99.6283 97.3525C99.1978 97.6418 99.0834 98.2255 99.3729 98.656C99.4729 98.8048 101.876 102.302 106.365 102.302C109.435 102.302 111.529 100.668 112.578 99.5858C113.628 100.668 115.722 102.302 118.792 102.302C119.31 102.302 119.731 101.882 119.731 101.363C119.731 100.844 119.311 100.423 118.792 100.423Z" fill="#F7731E"/>
<path d="M150.373 97.3554C149.944 97.0655 149.361 97.1782 149.069 97.6055C148.991 97.7205 147.107 100.423 143.639 100.423C140.171 100.423 138.282 97.7197 138.205 97.6077C137.86 97.0607 136.992 97.0609 136.646 97.6077C136.627 97.6359 134.713 100.423 131.213 100.423C127.745 100.423 125.856 97.7197 125.779 97.6077C125.434 97.0634 124.569 97.063 124.222 97.6055C124.214 97.6164 123.456 98.713 122.058 99.5291C121.61 99.7907 121.459 100.366 121.72 100.814C121.982 101.262 122.557 101.413 123.005 101.152C123.868 100.648 124.535 100.062 124.999 99.585C126.049 100.667 128.143 102.302 131.213 102.302C134.282 102.302 136.376 100.668 137.426 99.5859C138.476 100.668 140.57 102.302 143.639 102.302C148.129 102.302 150.527 98.8041 150.627 98.6552C150.916 98.2254 150.801 97.6452 150.373 97.3554Z" fill="#F7731E"/>
</g>
<defs>
<filter id="filter0_d_101_139" x="0.313721" y="0.313721" width="185.373" height="185.373" filterUnits="userSpaceOnUse" color-interpolation-filters="sRGB">
<feFlood flood-opacity="0" result="BackgroundImageFix"/>
<feColorMatrix in="SourceAlpha" type="matrix" values="0 0 0 0 0 0 0 0 0 0 0 0 0 0 0 0 0 0 127 0" result="hardAlpha"/>
<feOffset dy="16"/>
<feGaussianBlur stdDeviation="25"/>
<feComposite in2="hardAlpha" operator="out"/>
<feColorMatrix type="matrix" values="0 0 0 0 0 0 0 0 0 0 0 0 0 0 0 0 0 0 0.05 0"/>
<feBlend mode="normal" in2="BackgroundImageFix" result="effect1_dropShadow_101_139"/>
<feBlend mode="normal" in="SourceGraphic" in2="effect1_dropShadow_101_139" result="shape"/>
</filter>
<clipPath id="clip0_101_139">
<rect width="64" height="64" fill="white" transform="translate(93 45)"/>
</clipPath>
</defs>
</svg>
