<svg width="186" height="186" viewBox="0 0 186 186" fill="none" xmlns="http://www.w3.org/2000/svg">
<g filter="url(#filter0_d_101_135)">
<rect x="92.9998" y="31" width="65.0541" height="65.0541" rx="8" transform="rotate(45 92.9998 31)" fill="white"/>
</g>
<g clip-path="url(#clip0_101_135)">
<path d="M50.8138 92.3346C49.9697 91.4905 48.8475 91.0257 47.6541 91.0257C46.949 91.0257 46.2694 91.1892 45.6567 91.4959C39.6362 82.9662 39.6153 71.2776 45.7076 62.7272C46.0455 62.2528 45.935 61.5943 45.4606 61.2563C44.9862 60.9182 44.3277 61.0288 43.9896 61.5032C40.6291 66.2196 38.9051 71.7892 39.004 77.6098C39.0982 83.1489 40.8374 88.4033 44.0416 92.8639C42.7684 94.6105 42.9191 97.0787 44.4943 98.6541C45.3655 99.5252 46.5097 99.9607 47.6541 99.9607C48.7984 99.9607 49.9426 99.5252 50.8138 98.6541C52.556 96.9117 52.556 94.0769 50.8138 92.3346ZM49.3222 97.1624C48.4021 98.0822 46.9056 98.0822 45.9858 97.1624C45.0659 96.2425 45.0659 94.7458 45.9858 93.826C46.4315 93.3804 47.0239 93.135 47.6539 93.135C48.284 93.135 48.8765 93.3804 49.322 93.826C50.242 94.7459 50.2421 96.2426 49.3222 97.1624Z" fill="#F7731E"/>
<path d="M82.0273 97.5818C81.6866 97.1097 81.0274 97.0034 80.555 97.3446C77.5398 99.5233 74.1504 100.967 70.4807 101.635C69.6304 101.789 68.7632 101.561 68.1016 101.009C67.4448 100.461 67.0681 99.6562 67.0681 98.8006V91.0699H67.1602C68.3814 91.0699 69.3751 90.0764 69.3751 88.8551V87.0744C72.9476 85.7107 75.4923 82.2486 75.4923 78.2028V73.2094C77.192 72.7451 78.4454 71.1883 78.4454 69.3434C78.4454 67.3124 76.9263 65.6305 74.9649 65.3713V58.7965C74.9649 57.0518 73.5455 55.6324 71.8008 55.6324C70.0562 55.6324 68.6368 57.0518 68.6368 58.7965V65.3356H63.3633V58.7965C63.3633 57.0518 61.9439 55.6324 60.1993 55.6324C58.4546 55.6324 57.0352 57.0518 57.0352 58.7965V65.3713C55.0738 65.6305 53.5547 67.3123 53.5547 69.3434C53.5547 71.1883 54.8081 72.7451 56.5078 73.2094V78.2028C56.5078 82.2486 59.0525 85.7107 62.625 87.0744V88.8552C62.625 90.0765 63.6187 91.07 64.8399 91.07H64.9588V98.8007C64.9588 100.284 65.6117 101.679 66.7501 102.629C67.6588 103.387 68.7911 103.792 69.9542 103.792C70.2547 103.792 70.5572 103.765 70.8584 103.71C74.84 102.985 78.5181 101.419 81.7901 99.0543C82.2623 98.7131 82.3684 98.0539 82.0273 97.5818ZM70.7463 58.7965C70.7463 58.215 71.2194 57.7418 71.801 57.7418C72.3825 57.7418 72.8556 58.215 72.8556 58.7965V65.3356H70.7463V58.7965ZM59.1447 58.7965C59.1447 58.215 59.6178 57.7418 60.1994 57.7418C60.7809 57.7418 61.2541 58.215 61.2541 58.7965V65.3356H59.1447V58.7965ZM55.6642 69.3434C55.6642 68.2966 56.5159 67.445 57.5626 67.445H74.4377C75.4845 67.445 76.3361 68.2966 76.3361 69.3434C76.3361 70.3902 75.4845 71.2419 74.4377 71.2419H57.5626C56.5159 71.2419 55.6642 70.3902 55.6642 69.3434ZM58.6173 78.2028V73.3512H73.383V78.2028C73.383 82.2737 70.0711 85.5856 66.0002 85.5856C61.9293 85.5856 58.6173 82.2737 58.6173 78.2028ZM66.0401 88.9606C66.0313 88.9604 66.0225 88.9593 66.0137 88.9593C66.0048 88.9593 65.996 88.9604 65.9872 88.9606H64.8402C64.7818 88.9606 64.7345 88.9133 64.7345 88.8552V87.6104C65.1487 87.6659 65.5711 87.695 66.0002 87.695C66.4292 87.695 66.8516 87.6659 67.2658 87.6104V88.8552C67.2658 88.9133 67.2185 88.9606 67.1603 88.9606H66.0401Z" fill="#F7731E"/>
<path d="M85.0659 94.7232C84.6479 94.333 83.9967 94.3481 83.5969 94.7521C83.5888 94.7603 83.5807 94.7688 83.573 94.7769C83.1755 95.2028 83.1986 95.8701 83.6244 96.2676C83.8277 96.4573 84.086 96.5512 84.3437 96.5512C84.6162 96.5512 84.888 96.4462 85.0933 96.2387C85.1014 96.2305 85.1096 96.222 85.1173 96.2139C85.5148 95.788 85.4917 95.1207 85.0659 94.7232Z" fill="#F7731E"/>
<path d="M92.9285 75.1768C92.4586 68.7202 89.6756 62.6401 85.0924 58.0567C80.5877 53.5516 74.57 50.794 68.1481 50.2921C61.8045 49.7961 55.491 51.5175 50.3686 55.1389C49.8929 55.4752 49.78 56.1334 50.1162 56.609C50.4523 57.0845 51.1107 57.1977 51.5862 56.8613C61.3814 49.9366 75.1447 51.0916 83.6009 59.5483C92.3397 68.2875 93.3964 81.8587 86.1133 91.8176C85.7695 92.2877 85.8719 92.9475 86.342 93.2915C86.5298 93.4288 86.7478 93.4949 86.9639 93.4949C87.2888 93.4949 87.6095 93.3453 87.8161 93.0627C91.5779 87.9186 93.3937 81.5666 92.9285 75.1768Z" fill="#F7731E"/>
<path d="M48.2717 58.1786C47.8579 57.7686 47.1901 57.7714 46.78 58.1852L46.7628 58.2028C46.3528 58.6164 46.3558 59.2842 46.7695 59.6943C46.9751 59.8981 47.2436 59.9998 47.512 59.9998C47.7833 59.9998 48.0548 59.8956 48.2611 59.6877L48.2783 59.6701C48.6884 59.2565 48.6853 58.5887 48.2717 58.1786Z" fill="#F7731E"/>
<path d="M68.3782 77.8123C68.1892 77.4881 67.8422 77.2887 67.4669 77.2887H66.7132L68.1014 75.5352C68.463 75.0785 68.3858 74.4151 67.9291 74.0537C67.4724 73.692 66.809 73.7694 66.4474 74.2259L63.7061 77.6888C63.4551 78.0059 63.4075 78.4387 63.5836 78.8027C63.7598 79.1668 64.1286 79.3981 64.5331 79.3981H65.6574L64.3658 81.6786C64.0787 82.1854 64.257 82.829 64.7636 83.116C64.928 83.209 65.1063 83.2532 65.2825 83.2532C65.6503 83.2531 66.0073 83.0606 66.2014 82.7181L68.3847 78.8632C68.5697 78.5366 68.5672 78.1365 68.3782 77.8123Z" fill="#F7731E"/>
</g>
<defs>
<filter id="filter0_d_101_135" x="0.313354" y="0.313721" width="185.373" height="185.373" filterUnits="userSpaceOnUse" color-interpolation-filters="sRGB">
<feFlood flood-opacity="0" result="BackgroundImageFix"/>
<feColorMatrix in="SourceAlpha" type="matrix" values="0 0 0 0 0 0 0 0 0 0 0 0 0 0 0 0 0 0 127 0" result="hardAlpha"/>
<feOffset dy="16"/>
<feGaussianBlur stdDeviation="25"/>
<feComposite in2="hardAlpha" operator="out"/>
<feColorMatrix type="matrix" values="0 0 0 0 0 0 0 0 0 0 0 0 0 0 0 0 0 0 0.05 0"/>
<feBlend mode="normal" in2="BackgroundImageFix" result="effect1_dropShadow_101_135"/>
<feBlend mode="normal" in="SourceGraphic" in2="effect1_dropShadow_101_135" result="shape"/>
</filter>
<clipPath id="clip0_101_135">
<rect width="54" height="54" fill="white" transform="translate(39 50)"/>
</clipPath>
</defs>
</svg>
