<svg width="186" height="186" viewBox="0 0 186 186" fill="none" xmlns="http://www.w3.org/2000/svg">
<g filter="url(#filter0_d_101_137)">
<rect x="93.0002" y="31" width="65.0541" height="65.0541" rx="8" transform="rotate(45 93.0002 31)" fill="white"/>
</g>
<path d="M125.656 73.2031H126.516V82.6562C126.516 85.0255 128.443 86.9531 130.812 86.9531H139.406C141.776 86.9531 143.703 85.0255 143.703 82.6562V73.2031H144.562C145.984 73.2031 147.141 72.0464 147.141 70.625C147.141 69.2036 145.984 68.0469 144.562 68.0469H143.703V64.4624C143.703 62.6655 143.004 60.9759 141.733 59.7049C140.462 58.4339 138.773 57.7344 136.975 57.7344H133.243C131.446 57.7344 129.756 58.4339 128.485 59.7049C127.214 60.9759 126.516 62.6646 126.516 64.4624V68.0469H125.656C124.235 68.0469 123.078 69.2036 123.078 70.625C123.078 72.0464 124.235 73.2031 125.656 73.2031ZM128.29 63.75H129.953C131.849 63.75 133.391 62.2083 133.391 60.3125V59.4531H136.828V60.3125C136.828 62.2083 138.37 63.75 140.266 63.75H141.929C141.962 63.9846 141.984 64.2209 141.984 64.4624V69.6702C140.409 68.6141 138.558 68.0469 136.619 68.0469H133.599C131.66 68.0469 129.809 68.6141 128.234 69.6702V64.4624C128.234 64.2209 128.257 63.9846 128.29 63.75ZM128.234 71.8634C129.703 70.5133 131.592 69.7656 133.599 69.7656H136.62C138.628 69.7656 140.517 70.5133 141.985 71.8634V78.8389C140.516 80.1898 138.627 80.9375 136.619 80.9375H133.599C131.591 80.9375 129.702 80.1898 128.234 78.8398V71.8634H128.234ZM139.406 85.2344H130.812C129.391 85.2344 128.234 84.0777 128.234 82.6562V81.0329C129.81 82.0882 131.661 82.6562 133.599 82.6562H136.62C138.559 82.6562 140.41 82.0882 141.985 81.0329V82.6562C141.984 84.0777 140.828 85.2344 139.406 85.2344ZM144.562 69.7656C145.036 69.7656 145.422 70.1515 145.422 70.625C145.422 71.0985 145.036 71.4844 144.562 71.4844H143.703V69.7656H144.562ZM141.354 62.0312H140.266C139.318 62.0312 138.547 61.2604 138.547 60.3125V59.7084C139.281 59.9498 139.955 60.358 140.517 60.9201C140.852 61.2544 141.129 61.6291 141.354 62.0312ZM131.672 59.7084V60.3125C131.672 61.2604 130.901 62.0312 129.953 62.0312H128.865C129.089 61.6291 129.367 61.2544 129.701 60.9201C130.264 60.358 130.938 59.9498 131.672 59.7084ZM125.656 69.7656H126.516V71.4844H125.656C125.183 71.4844 124.797 71.0985 124.797 70.625C124.797 70.1515 125.183 69.7656 125.656 69.7656Z" fill="#F7731E"/>
<path d="M96.4375 73.2031H97.2969V82.6562C97.2969 85.0255 99.2245 86.9531 101.594 86.9531H110.188C112.557 86.9531 114.484 85.0255 114.484 82.6562V73.2031H115.344C116.765 73.2031 117.922 72.0464 117.922 70.625C117.922 69.2036 116.765 68.0469 115.344 68.0469H114.484V64.4624C114.484 62.6655 113.785 60.9759 112.514 59.7049C111.243 58.4339 109.554 57.7344 107.756 57.7344H104.024C102.227 57.7344 100.538 58.4339 99.2666 59.7049C97.9955 60.9759 97.2969 62.6646 97.2969 64.4624V68.0469H96.4375C95.0161 68.0469 93.8594 69.2036 93.8594 70.625C93.8594 72.0464 95.0161 73.2031 96.4375 73.2031ZM99.0715 63.75H100.734C102.63 63.75 104.172 62.2083 104.172 60.3125V59.4531H107.609V60.3125C107.609 62.2083 109.151 63.75 111.047 63.75H112.71C112.743 63.9846 112.766 64.2209 112.766 64.4624V69.6702C111.19 68.6141 109.339 68.0469 107.401 68.0469H104.38C102.441 68.0469 100.59 68.6141 99.0148 69.6702V64.4624C99.0156 64.2209 99.038 63.9846 99.0715 63.75ZM99.0156 71.8634C100.484 70.5133 102.373 69.7656 104.381 69.7656H107.401C109.409 69.7656 111.298 70.5133 112.766 71.8634V78.8389C111.297 80.1898 109.408 80.9375 107.401 80.9375H104.38C102.373 80.9375 100.484 80.1898 99.0156 78.8398V71.8634ZM110.188 85.2344H101.594C100.172 85.2344 99.0156 84.0777 99.0156 82.6562V81.0329C100.591 82.0882 102.442 82.6562 104.381 82.6562H107.401C109.34 82.6562 111.191 82.0882 112.766 81.0329V82.6562C112.766 84.0777 111.609 85.2344 110.188 85.2344ZM115.344 69.7656C115.817 69.7656 116.203 70.1515 116.203 70.625C116.203 71.0985 115.817 71.4844 115.344 71.4844H114.484V69.7656H115.344ZM112.135 62.0312H111.047C110.099 62.0312 109.328 61.2604 109.328 60.3125V59.7084C110.062 59.9498 110.736 60.358 111.299 60.9201C111.633 61.2544 111.911 61.6291 112.135 62.0312ZM102.453 59.7084V60.3125C102.453 61.2604 101.682 62.0312 100.734 62.0312H99.6464C99.8707 61.6291 100.148 61.2544 100.483 60.9201C101.045 60.358 101.719 59.9498 102.453 59.7084ZM96.4375 69.7656H97.2969V71.4844H96.4375C95.964 71.4844 95.5781 71.0985 95.5781 70.625C95.5781 70.1515 95.964 69.7656 96.4375 69.7656Z" fill="#F7731E"/>
<path d="M96.4375 56.0156H115.344C115.818 56.0156 116.203 55.6306 116.203 55.1562V51.7188C116.203 51.2444 115.818 50.8594 115.344 50.8594H96.4375C95.9631 50.8594 95.5781 51.2444 95.5781 51.7188V55.1562C95.5781 55.6306 95.9631 56.0156 96.4375 56.0156ZM97.2969 52.5781H114.484V54.2969H97.2969V52.5781Z" fill="#F7731E"/>
<path d="M125.656 56.0156H144.562C145.037 56.0156 145.422 55.6306 145.422 55.1562V51.7188C145.422 51.2444 145.037 50.8594 144.562 50.8594H125.656C125.182 50.8594 124.797 51.2444 124.797 51.7188V55.1562C124.797 55.6306 125.182 56.0156 125.656 56.0156ZM126.516 52.5781H143.703V54.2969H126.516V52.5781Z" fill="#F7731E"/>
<path d="M93.8594 102.422H147.141V104.141H93.8594V102.422Z" fill="#F7731E"/>
<path d="M98.1562 95.5469H101.594V97.2656H98.1562V95.5469Z" fill="#F7731E"/>
<path d="M105.031 95.5469H108.469V97.2656H105.031V95.5469Z" fill="#F7731E"/>
<path d="M111.906 95.5469H115.344V97.2656H111.906V95.5469Z" fill="#F7731E"/>
<path d="M118.781 95.5469H122.219V97.2656H118.781V95.5469Z" fill="#F7731E"/>
<path d="M125.656 95.5469H129.094V97.2656H125.656V95.5469Z" fill="#F7731E"/>
<path d="M132.531 95.5469H135.969V97.2656H132.531V95.5469Z" fill="#F7731E"/>
<path d="M139.406 95.5469H142.844V97.2656H139.406V95.5469Z" fill="#F7731E"/>
<path d="M121.359 50.8594H119.641V88.6719H93.8594V90.3906H147.141V88.6719H121.359V50.8594Z" fill="#F7731E"/>
<defs>
<filter id="filter0_d_101_137" x="0.313721" y="0.313721" width="185.373" height="185.373" filterUnits="userSpaceOnUse" color-interpolation-filters="sRGB">
<feFlood flood-opacity="0" result="BackgroundImageFix"/>
<feColorMatrix in="SourceAlpha" type="matrix" values="0 0 0 0 0 0 0 0 0 0 0 0 0 0 0 0 0 0 127 0" result="hardAlpha"/>
<feOffset dy="16"/>
<feGaussianBlur stdDeviation="25"/>
<feComposite in2="hardAlpha" operator="out"/>
<feColorMatrix type="matrix" values="0 0 0 0 0 0 0 0 0 0 0 0 0 0 0 0 0 0 0.05 0"/>
<feBlend mode="normal" in2="BackgroundImageFix" result="effect1_dropShadow_101_137"/>
<feBlend mode="normal" in="SourceGraphic" in2="effect1_dropShadow_101_137" result="shape"/>
</filter>
</defs>
</svg>
